<svg width="277" height="216" viewBox="0 0 277 216" fill="none" xmlns="http://www.w3.org/2000/svg">
<path d="M6.3457 196.98V207H2.9707V181.406H12.4102C15.2109 181.406 17.4023 182.121 18.9844 183.551C20.5781 184.98 21.375 186.873 21.375 189.229C21.375 191.713 20.5957 193.629 19.0371 194.977C17.4902 196.312 15.2695 196.98 12.375 196.98H6.3457ZM6.3457 194.221H12.4102C14.2148 194.221 15.5977 193.799 16.5586 192.955C17.5195 192.1 18 190.869 18 189.264C18 187.74 17.5195 186.521 16.5586 185.607C15.5977 184.693 14.2793 184.219 12.6035 184.184H6.3457V194.221ZM36.2461 201.955C36.2461 201.076 35.9121 200.396 35.2441 199.916C34.5879 199.424 33.4336 199.002 31.7812 198.65C30.1406 198.299 28.834 197.877 27.8613 197.385C26.9004 196.893 26.1855 196.307 25.7168 195.627C25.2598 194.947 25.0312 194.139 25.0312 193.201C25.0312 191.643 25.6875 190.324 27 189.246C28.3242 188.168 30.0117 187.629 32.0625 187.629C34.2188 187.629 35.9648 188.186 37.3008 189.299C38.6484 190.412 39.3223 191.836 39.3223 193.57H36.0527C36.0527 192.68 35.6719 191.912 34.9102 191.268C34.1602 190.623 33.2109 190.301 32.0625 190.301C30.8789 190.301 29.9531 190.559 29.2852 191.074C28.6172 191.59 28.2832 192.264 28.2832 193.096C28.2832 193.881 28.5938 194.473 29.2148 194.871C29.8359 195.27 30.9551 195.65 32.5723 196.014C34.2012 196.377 35.5195 196.811 36.5273 197.314C37.5352 197.818 38.2793 198.428 38.7598 199.143C39.252 199.846 39.498 200.707 39.498 201.727C39.498 203.426 38.8184 204.791 37.459 205.822C36.0996 206.842 34.3359 207.352 32.168 207.352C30.6445 207.352 29.2969 207.082 28.125 206.543C26.9531 206.004 26.0332 205.254 25.3652 204.293C24.709 203.32 24.3809 202.271 24.3809 201.146H27.6328C27.6914 202.236 28.125 203.104 28.9336 203.748C29.7539 204.381 30.832 204.697 32.168 204.697C33.3984 204.697 34.3828 204.451 35.1211 203.959C35.8711 203.455 36.2461 202.787 36.2461 201.955ZM49.957 202.236L54.3867 187.98H57.8672L50.2207 209.936C49.0371 213.1 47.1562 214.682 44.5781 214.682L43.9629 214.629L42.75 214.4V211.764L43.6289 211.834C44.7305 211.834 45.5859 211.611 46.1953 211.166C46.8164 210.721 47.3262 209.906 47.7246 208.723L48.4453 206.789L41.6602 187.98H45.2109L49.957 202.236ZM68.168 204.697C69.3281 204.697 70.3418 204.346 71.209 203.643C72.0762 202.939 72.5566 202.061 72.6504 201.006H75.7266C75.668 202.096 75.293 203.133 74.6016 204.117C73.9102 205.102 72.9844 205.887 71.8242 206.473C70.6758 207.059 69.457 207.352 68.168 207.352C65.5781 207.352 63.5156 206.49 61.9805 204.768C60.457 203.033 59.6953 200.666 59.6953 197.666V197.121C59.6953 195.27 60.0352 193.623 60.7148 192.182C61.3945 190.74 62.3672 189.621 63.6328 188.824C64.9102 188.027 66.416 187.629 68.1504 187.629C70.2832 187.629 72.0527 188.268 73.459 189.545C74.877 190.822 75.6328 192.48 75.7266 194.52H72.6504C72.5566 193.289 72.0879 192.281 71.2441 191.496C70.4121 190.699 69.3809 190.301 68.1504 190.301C66.498 190.301 65.2148 190.898 64.3008 192.094C63.3984 193.277 62.9473 194.994 62.9473 197.244V197.859C62.9473 200.051 63.3984 201.738 64.3008 202.922C65.2031 204.105 66.4922 204.697 68.168 204.697ZM82.6348 190.283C84.0762 188.514 85.9512 187.629 88.2598 187.629C92.2793 187.629 94.3066 189.896 94.3418 194.432V207H91.0898V194.414C91.0781 193.043 90.7617 192.029 90.1406 191.373C89.5312 190.717 88.5762 190.389 87.2754 190.389C86.2207 190.389 85.2949 190.67 84.498 191.232C83.7012 191.795 83.0801 192.533 82.6348 193.447V207H79.3828V180H82.6348V190.283ZM98.3496 197.314C98.3496 195.451 98.7129 193.775 99.4395 192.287C100.178 190.799 101.197 189.65 102.498 188.842C103.811 188.033 105.305 187.629 106.98 187.629C109.57 187.629 111.662 188.525 113.256 190.318C114.861 192.111 115.664 194.496 115.664 197.473V197.701C115.664 199.553 115.307 201.217 114.592 202.693C113.889 204.158 112.875 205.301 111.551 206.121C110.238 206.941 108.727 207.352 107.016 207.352C104.438 207.352 102.346 206.455 100.74 204.662C99.1465 202.869 98.3496 200.496 98.3496 197.543V197.314ZM101.619 197.701C101.619 199.811 102.105 201.504 103.078 202.781C104.062 204.059 105.375 204.697 107.016 204.697C108.668 204.697 109.98 204.053 110.953 202.764C111.926 201.463 112.412 199.646 112.412 197.314C112.412 195.229 111.914 193.541 110.918 192.252C109.934 190.951 108.621 190.301 106.98 190.301C105.375 190.301 104.08 190.939 103.096 192.217C102.111 193.494 101.619 195.322 101.619 197.701ZM138.832 185.678H130.992V207H125.719V185.678H117.984V181.406H138.832V185.678ZM148.693 207.352C145.904 207.352 143.631 206.496 141.873 204.785C140.127 203.074 139.254 200.795 139.254 197.947V197.455C139.254 195.545 139.623 193.84 140.361 192.34C141.1 190.828 142.143 189.668 143.49 188.859C144.85 188.039 146.396 187.629 148.131 187.629C150.732 187.629 152.777 188.449 154.266 190.09C155.766 191.73 156.516 194.057 156.516 197.068V199.143H144.404C144.568 200.385 145.061 201.381 145.881 202.131C146.713 202.881 147.762 203.256 149.027 203.256C150.984 203.256 152.514 202.547 153.615 201.129L156.111 203.924C155.35 205.002 154.318 205.846 153.018 206.455C151.717 207.053 150.275 207.352 148.693 207.352ZM148.113 191.742C147.105 191.742 146.285 192.082 145.652 192.762C145.031 193.441 144.633 194.414 144.457 195.68H151.523V195.275C151.5 194.15 151.195 193.283 150.609 192.674C150.023 192.053 149.191 191.742 148.113 191.742ZM167.326 203.256C168.264 203.256 169.025 202.998 169.611 202.482C170.197 201.967 170.502 201.281 170.525 200.426H175.289C175.277 201.715 174.926 202.898 174.234 203.977C173.543 205.043 172.594 205.875 171.387 206.473C170.191 207.059 168.867 207.352 167.414 207.352C164.695 207.352 162.551 206.49 160.98 204.768C159.41 203.033 158.625 200.643 158.625 197.596V197.262C158.625 194.332 159.404 191.994 160.963 190.248C162.521 188.502 164.66 187.629 167.379 187.629C169.758 187.629 171.662 188.309 173.092 189.668C174.533 191.016 175.266 192.814 175.289 195.064H170.525C170.502 194.08 170.197 193.283 169.611 192.674C169.025 192.053 168.252 191.742 167.291 191.742C166.107 191.742 165.211 192.176 164.602 193.043C164.004 193.898 163.705 195.293 163.705 197.227V197.754C163.705 199.711 164.004 201.117 164.602 201.973C165.199 202.828 166.107 203.256 167.326 203.256ZM183.146 190.055C184.494 188.438 186.188 187.629 188.227 187.629C192.352 187.629 194.443 190.025 194.502 194.818V207H189.422V194.959C189.422 193.869 189.188 193.066 188.719 192.551C188.25 192.023 187.471 191.76 186.381 191.76C184.893 191.76 183.814 192.334 183.146 193.482V207H178.066V180H183.146V190.055ZM198.914 205.295C198.914 204.732 199.078 204.264 199.406 203.889C199.746 203.514 200.25 203.326 200.918 203.326C201.586 203.326 202.09 203.514 202.43 203.889C202.781 204.264 202.957 204.732 202.957 205.295C202.957 205.834 202.781 206.285 202.43 206.648C202.09 207.012 201.586 207.193 200.918 207.193C200.25 207.193 199.746 207.012 199.406 206.648C199.078 206.285 198.914 205.834 198.914 205.295ZM215.965 204.697C217.125 204.697 218.139 204.346 219.006 203.643C219.873 202.939 220.354 202.061 220.447 201.006H223.523C223.465 202.096 223.09 203.133 222.398 204.117C221.707 205.102 220.781 205.887 219.621 206.473C218.473 207.059 217.254 207.352 215.965 207.352C213.375 207.352 211.312 206.49 209.777 204.768C208.254 203.033 207.492 200.666 207.492 197.666V197.121C207.492 195.27 207.832 193.623 208.512 192.182C209.191 190.74 210.164 189.621 211.43 188.824C212.707 188.027 214.213 187.629 215.947 187.629C218.08 187.629 219.85 188.268 221.256 189.545C222.674 190.822 223.43 192.48 223.523 194.52H220.447C220.354 193.289 219.885 192.281 219.041 191.496C218.209 190.699 217.178 190.301 215.947 190.301C214.295 190.301 213.012 190.898 212.098 192.094C211.195 193.277 210.744 194.994 210.744 197.244V197.859C210.744 200.051 211.195 201.738 212.098 202.922C213 204.105 214.289 204.697 215.965 204.697ZM226.318 197.314C226.318 195.451 226.682 193.775 227.408 192.287C228.146 190.799 229.166 189.65 230.467 188.842C231.779 188.033 233.273 187.629 234.949 187.629C237.539 187.629 239.631 188.525 241.225 190.318C242.83 192.111 243.633 194.496 243.633 197.473V197.701C243.633 199.553 243.275 201.217 242.561 202.693C241.857 204.158 240.844 205.301 239.52 206.121C238.207 206.941 236.695 207.352 234.984 207.352C232.406 207.352 230.314 206.455 228.709 204.662C227.115 202.869 226.318 200.496 226.318 197.543V197.314ZM229.588 197.701C229.588 199.811 230.074 201.504 231.047 202.781C232.031 204.059 233.344 204.697 234.984 204.697C236.637 204.697 237.949 204.053 238.922 202.764C239.895 201.463 240.381 199.646 240.381 197.314C240.381 195.229 239.883 193.541 238.887 192.252C237.902 190.951 236.59 190.301 234.949 190.301C233.344 190.301 232.049 190.939 231.064 192.217C230.08 193.494 229.588 195.322 229.588 197.701ZM250.77 187.98L250.857 190.09C252.252 188.449 254.133 187.629 256.5 187.629C259.16 187.629 260.971 188.648 261.932 190.688C262.564 189.773 263.385 189.035 264.393 188.473C265.412 187.91 266.613 187.629 267.996 187.629C272.168 187.629 274.289 189.838 274.359 194.256V207H271.107V194.449C271.107 193.09 270.797 192.076 270.176 191.408C269.555 190.729 268.512 190.389 267.047 190.389C265.84 190.389 264.838 190.752 264.041 191.479C263.244 192.193 262.781 193.16 262.652 194.379V207H259.383V194.537C259.383 191.771 258.029 190.389 255.322 190.389C253.189 190.389 251.73 191.297 250.945 193.113V207H247.693V187.98H250.77Z" fill="#0000E6"/>
<g clip-path="url(#clip0)">
<path d="M61.7182 142.025C69.5018 142.025 75.8117 135.541 75.8117 127.543C75.8117 119.545 69.5018 113.061 61.7182 113.061C53.9346 113.061 47.6247 119.545 47.6247 127.543C47.6247 135.541 53.9346 142.025 61.7182 142.025Z" fill="#F2F2F2"/>
<path d="M64.0098 139.905C71.7935 139.905 78.1034 133.422 78.1034 125.424C78.1034 117.426 71.7935 110.942 64.0098 110.942C56.2262 110.942 49.9163 117.426 49.9163 125.424C49.9163 133.422 56.2262 139.905 64.0098 139.905Z" fill="#004FFF"/>
<path d="M249.735 109.4H75.36V109.889H249.735V109.4Z" fill="#3F3D56"/>
<path d="M165.669 4.55944H103.777V3.24864H75.7123V4.55944H13.5648C13.015 4.55944 12.4706 4.67071 11.9627 4.88689C11.4548 5.10308 10.9932 5.41996 10.6045 5.81942C10.2157 6.21889 9.90734 6.69312 9.69695 7.21505C9.48655 7.73698 9.37827 8.29638 9.37827 8.86131V95.9455C9.37826 97.0864 9.81934 98.1806 10.6045 98.9874C11.3896 99.7941 12.4545 100.247 13.5648 100.247H165.669C166.779 100.247 167.844 99.7941 168.629 98.9874C169.415 98.1806 169.856 97.0864 169.856 95.9455V8.86131C169.856 8.29638 169.747 7.73698 169.537 7.21505C169.327 6.69312 169.018 6.21889 168.629 5.81942C168.241 5.41996 167.779 5.10308 167.271 4.88689C166.763 4.67071 166.219 4.55944 165.669 4.55944Z" fill="#3F3D56"/>
<path d="M164.243 12.162H14.9911V98.6744H164.243V12.162Z" fill="#004FFF"/>
<path d="M89.4894 9.80261C90.3348 9.80261 91.0202 9.09838 91.0202 8.22966C91.0202 7.36094 90.3348 6.65671 89.4894 6.65671C88.6439 6.65671 87.9586 7.36094 87.9586 8.22966C87.9586 9.09838 88.6439 9.80261 89.4894 9.80261Z" fill="#004FFF"/>
<path opacity="0.1" d="M121.559 98.6745H14.9912V12.1621L121.559 98.6745Z" fill="black"/>
<path d="M38.3445 92.2007C46.2679 92.2007 52.6911 85.6006 52.6911 77.4589C52.6911 69.3173 46.2679 62.7172 38.3445 62.7172C30.4212 62.7172 23.998 69.3173 23.998 77.4589C23.998 85.6006 30.4212 92.2007 38.3445 92.2007Z" fill="#F2F2F2"/>
<path d="M138.256 58.8188H124.314V61.8123H138.256V58.8188Z" fill="#3F3D56"/>
<path d="M155.11 35.5128H107.459V36.7957H155.11V35.5128Z" fill="#3F3D56"/>
<path d="M155.11 39.5753H107.459V40.8582H155.11V39.5753Z" fill="#3F3D56"/>
<path d="M155.11 43.6378H107.459V44.9207H155.11V43.6378Z" fill="#3F3D56"/>
<path d="M155.11 47.7003H107.459V48.9832H155.11V47.7003Z" fill="#3F3D56"/>
<path d="M155.11 51.7629H107.459V53.0458H155.11V51.7629Z" fill="#3F3D56"/>
<path d="M155.11 13.9172H149.284V19.9041H155.11V13.9172Z" fill="#F2F2F2"/>
<path d="M157.816 22.6837H150.741V15.4139H157.816V22.6837ZM151.048 22.3676H157.508V15.73H151.048V22.3676Z" fill="#3F3D56"/>
<path d="M174.046 97.1015H159.48V96.0231C159.48 95.995 159.475 95.9672 159.464 95.9413C159.454 95.9153 159.439 95.8917 159.419 95.8719C159.4 95.852 159.377 95.8363 159.352 95.8255C159.327 95.8148 159.3 95.8093 159.272 95.8093H154.278C154.251 95.8093 154.224 95.8148 154.199 95.8255C154.173 95.8363 154.15 95.852 154.131 95.8719C154.112 95.8917 154.096 95.9153 154.086 95.9413C154.075 95.9672 154.07 95.995 154.07 96.0231V97.1015H150.949V96.0231C150.949 95.995 150.943 95.9672 150.933 95.9413C150.922 95.9153 150.907 95.8917 150.888 95.8719C150.868 95.852 150.846 95.8363 150.82 95.8255C150.795 95.8148 150.768 95.8093 150.741 95.8093H145.747C145.719 95.8093 145.692 95.8148 145.667 95.8255C145.642 95.8363 145.619 95.852 145.6 95.8719C145.58 95.8917 145.565 95.9153 145.554 95.9413C145.544 95.9672 145.539 95.995 145.539 96.0231V97.1015H142.417V96.0231C142.417 95.995 142.412 95.9672 142.401 95.9413C142.391 95.9153 142.376 95.8917 142.356 95.8719C142.337 95.852 142.314 95.8363 142.289 95.8255C142.264 95.8148 142.237 95.8093 142.209 95.8093H137.215C137.188 95.8093 137.161 95.8148 137.136 95.8255C137.11 95.8363 137.087 95.852 137.068 95.8719C137.049 95.8917 137.033 95.9153 137.023 95.9413C137.012 95.9672 137.007 95.995 137.007 96.0231V97.1015H133.886V96.0231C133.886 95.995 133.88 95.9672 133.87 95.9413C133.859 95.9153 133.844 95.8917 133.825 95.8719C133.805 95.852 133.783 95.8363 133.757 95.8255C133.732 95.8148 133.705 95.8093 133.678 95.8093H128.684C128.656 95.8093 128.629 95.8148 128.604 95.8255C128.579 95.8363 128.556 95.852 128.536 95.8719C128.517 95.8917 128.502 95.9153 128.491 95.9413C128.481 95.9672 128.476 95.995 128.476 96.0231V97.1015H125.354V96.0231C125.354 95.995 125.349 95.9672 125.338 95.9413C125.328 95.9153 125.313 95.8917 125.293 95.8719C125.274 95.852 125.251 95.8363 125.226 95.8255C125.201 95.8148 125.174 95.8093 125.146 95.8093H120.152C120.125 95.8093 120.098 95.8148 120.072 95.8255C120.047 95.8363 120.024 95.852 120.005 95.8719C119.986 95.8917 119.97 95.9153 119.96 95.9413C119.949 95.9672 119.944 95.995 119.944 96.0231V97.1015H116.823V96.0231C116.823 95.995 116.817 95.9672 116.807 95.9413C116.796 95.9153 116.781 95.8917 116.762 95.8719C116.742 95.852 116.72 95.8363 116.694 95.8255C116.669 95.8148 116.642 95.8093 116.615 95.8093H111.621C111.593 95.8093 111.566 95.8148 111.541 95.8255C111.516 95.8363 111.493 95.852 111.473 95.8719C111.454 95.8917 111.439 95.9153 111.428 95.9413C111.418 95.9672 111.413 95.995 111.413 96.0231V97.1015H108.291V96.0231C108.291 95.995 108.286 95.9672 108.275 95.9413C108.265 95.9153 108.25 95.8917 108.23 95.8719C108.211 95.852 108.188 95.8363 108.163 95.8255C108.138 95.8148 108.11 95.8093 108.083 95.8093H68.9631C68.9358 95.8093 68.9087 95.8148 68.8835 95.8255C68.8582 95.8363 68.8353 95.852 68.816 95.8719C68.7966 95.8917 68.7813 95.9153 68.7709 95.9413C68.7604 95.9672 68.755 95.995 68.755 96.0231V97.1015H65.6337V96.0231C65.6337 95.995 65.6283 95.9672 65.6179 95.9413C65.6074 95.9153 65.5921 95.8917 65.5728 95.8719C65.5535 95.852 65.5305 95.8363 65.5053 95.8255C65.48 95.8148 65.453 95.8093 65.4256 95.8093H60.4316C60.4043 95.8093 60.3772 95.8148 60.352 95.8255C60.3267 95.8363 60.3038 95.852 60.2844 95.8719C60.2651 95.8917 60.2498 95.9153 60.2393 95.9413C60.2289 95.9672 60.2235 95.995 60.2235 96.0231V97.1015H57.1022V96.0231C57.1022 95.995 57.0968 95.9672 57.0864 95.9413C57.0759 95.9153 57.0606 95.8917 57.0413 95.8719C57.022 95.852 56.999 95.8363 56.9738 95.8255C56.9485 95.8148 56.9215 95.8093 56.8941 95.8093H51.9001C51.8728 95.8093 51.8457 95.8148 51.8205 95.8255C51.7952 95.8363 51.7723 95.852 51.7529 95.8719C51.7336 95.8917 51.7183 95.9153 51.7078 95.9413C51.6974 95.9672 51.692 95.995 51.692 96.0231V97.1015H48.5707V96.0231C48.5707 95.995 48.5653 95.9672 48.5549 95.9413C48.5444 95.9153 48.5291 95.8917 48.5098 95.8719C48.4905 95.852 48.4675 95.8363 48.4423 95.8255C48.417 95.8148 48.39 95.8093 48.3626 95.8093H43.3686C43.3413 95.8093 43.3142 95.8148 43.2889 95.8255C43.2637 95.8363 43.2408 95.852 43.2214 95.8719C43.2021 95.8917 43.1868 95.9153 43.1763 95.9413C43.1659 95.9672 43.1605 95.995 43.1605 96.0231V97.1015H40.0392V96.0231C40.0392 95.995 40.0338 95.9672 40.0234 95.9413C40.0129 95.9153 39.9976 95.8917 39.9783 95.8719C39.959 95.852 39.936 95.8363 39.9108 95.8255C39.8855 95.8148 39.8585 95.8093 39.8311 95.8093H34.8371C34.8098 95.8093 34.7827 95.8148 34.7574 95.8255C34.7322 95.8363 34.7093 95.852 34.6899 95.8719C34.6706 95.8917 34.6553 95.9153 34.6448 95.9413C34.6344 95.9672 34.629 95.995 34.629 96.0231V97.1015H31.5077V96.0231C31.5077 95.995 31.5023 95.9672 31.4919 95.9413C31.4814 95.9153 31.4661 95.8917 31.4468 95.8719C31.4274 95.852 31.4045 95.8363 31.3793 95.8255C31.354 95.8148 31.327 95.8093 31.2996 95.8093H26.3056C26.2782 95.8093 26.2512 95.8148 26.2259 95.8255C26.2007 95.8363 26.1778 95.852 26.1584 95.8719C26.1391 95.8917 26.1238 95.9153 26.1133 95.9413C26.1029 95.9672 26.0975 95.995 26.0975 96.0231V97.1015H22.9762V96.0231C22.9762 95.995 22.9708 95.9672 22.9604 95.9413C22.9499 95.9153 22.9346 95.8917 22.9153 95.8719C22.8959 95.852 22.873 95.8363 22.8478 95.8255C22.8225 95.8148 22.7954 95.8093 22.7681 95.8093H17.7741C17.7467 95.8093 17.7197 95.8148 17.6944 95.8255C17.6692 95.8363 17.6463 95.852 17.6269 95.8719C17.6076 95.8917 17.5923 95.9153 17.5818 95.9413C17.5714 95.9672 17.566 95.995 17.566 96.0231V97.1015H7.99405C6.66955 97.1015 5.39929 97.6421 4.46273 98.6045C3.52616 99.5668 3 100.872 3 102.233V104.553C3 105.914 3.52616 107.22 4.46273 108.182C5.3993 109.144 6.66955 109.685 7.99405 109.685H174.046C175.371 109.685 176.641 109.144 177.578 108.182C178.514 107.22 179.04 105.914 179.04 104.553V102.233C179.04 100.872 178.514 99.5668 177.578 98.6045C176.641 97.6421 175.371 97.1015 174.046 97.1015Z" fill="#3F3D56"/>
<path d="M41.8172 86.6664C38.2414 86.6664 34.7458 85.5768 31.7726 83.5355C28.7994 81.4941 26.4821 78.5927 25.1137 75.198C23.7452 71.8034 23.3872 68.068 24.0848 64.4642C24.7824 60.8605 26.5044 57.5502 29.0329 54.9521C31.5614 52.3539 34.7829 50.5845 38.29 49.8677C41.7972 49.1509 45.4324 49.5188 48.7361 50.9249C52.0397 52.331 54.8634 54.7122 56.85 57.7673C58.8367 60.8224 59.897 64.4142 59.897 68.0886C59.8916 73.014 57.985 77.7361 54.5956 81.2189C51.2061 84.7017 46.6106 86.6608 41.8172 86.6664ZM41.8172 49.9996C38.3355 49.9996 34.9319 51.0605 32.037 53.0482C29.142 55.0358 26.8856 57.8609 25.5532 61.1662C24.2208 64.4716 23.8722 68.1087 24.5515 71.6176C25.2307 75.1265 26.9073 78.3496 29.3693 80.8794C31.8313 83.4092 34.968 85.132 38.3828 85.83C41.7977 86.5279 45.3373 86.1697 48.554 84.8006C51.7707 83.4315 54.5201 81.113 56.4544 78.1383C58.3888 75.1635 59.4213 71.6662 59.4213 68.0886C59.416 63.2928 57.5596 58.6949 54.2593 55.3038C50.9591 51.9126 46.4845 50.0051 41.8172 49.9996Z" fill="#3F3D56"/>
<path d="M203.108 7.95505H142.446V8.44394H203.108V7.95505Z" fill="#3F3D56"/>
<path d="M274 137.022H99.625V137.511H274V137.022Z" fill="#3F3D56"/>
<path d="M109.498 159.511H48.8351V160H109.498V159.511Z" fill="#3F3D56"/>
<path d="M121.708 134.445H115.047V141.289H121.708V134.445Z" fill="#004FFF"/>
<path d="M125.752 137.378H117.664V129.067H125.752V137.378ZM118.016 137.017H125.401V129.428H118.016V137.017Z" fill="#3F3D56"/>
<path d="M199.023 5.37779H192.362V12.2223H199.023V5.37779Z" fill="#004FFF"/>
<path d="M203.067 8.31114H194.979V0H203.067V8.31114ZM195.331 7.94979H202.716V0.361355H195.331V7.94979Z" fill="#3F3D56"/>
<path d="M266.109 134.445H259.448V141.289H266.109V134.445Z" fill="#004FFF"/>
<path d="M270.153 137.378H262.065V129.067H270.153V137.378ZM262.416 137.017H269.801V129.428H262.416V137.017Z" fill="#3F3D56"/>
<path d="M254.493 56.7011H253.927V40.7726C253.927 39.562 253.695 38.3632 253.244 37.2447C252.793 36.1262 252.132 35.1099 251.299 34.2539C250.466 33.3978 249.477 32.7187 248.389 32.2554C247.3 31.7921 246.133 31.5537 244.955 31.5537H212.113C210.935 31.5537 209.769 31.7921 208.68 32.2554C207.591 32.7187 206.602 33.3978 205.769 34.2539C204.936 35.1099 204.275 36.1262 203.824 37.2447C203.374 38.3632 203.142 39.562 203.142 40.7726V128.157C203.142 129.368 203.374 130.567 203.824 131.685C204.275 132.804 204.936 133.82 205.769 134.676C206.602 135.532 207.591 136.211 208.68 136.674C209.769 137.138 210.935 137.376 212.113 137.376H244.955C246.133 137.376 247.3 137.138 248.389 136.674C249.477 136.211 250.466 135.532 251.299 134.676C252.132 133.82 252.793 132.804 253.244 131.685C253.695 130.567 253.927 129.368 253.927 128.157V68.0392H254.493V56.7011Z" fill="#3F3D56"/>
<path d="M252.017 41.3145V128.572C252.017 130.398 251.311 132.149 250.055 133.44C248.799 134.732 247.094 135.457 245.317 135.458H212.317C210.54 135.457 208.836 134.732 207.58 133.44C206.323 132.149 205.618 130.398 205.618 128.572V41.3145C205.618 39.4889 206.324 37.7382 207.58 36.4473C208.837 35.1564 210.54 34.4311 212.317 34.4309H216.321C216.124 34.9275 216.049 35.4663 216.102 35.9998C216.155 36.5333 216.335 37.0451 216.627 37.4902C216.918 37.9353 217.311 38.3 217.772 38.5521C218.232 38.8042 218.746 38.9361 219.268 38.936H238.083C238.605 38.9361 239.119 38.8042 239.58 38.5521C240.04 38.3 240.434 37.9353 240.725 37.4902C241.016 37.0451 241.196 36.5333 241.249 35.9998C241.303 35.4663 241.228 34.9275 241.031 34.4309H245.317C247.094 34.4311 248.798 35.1564 250.054 36.4473C251.31 37.7382 252.016 39.4889 252.017 41.3145Z" fill="#004FFF"/>
<path d="M233.733 91.9646H223.902V94.9581H233.733V91.9646Z" fill="#3F3D56"/>
<path d="M245.617 68.6585H212.017V69.9415H245.617V68.6585Z" fill="#3F3D56"/>
<path d="M245.617 72.7211H212.017V74.004H245.617V72.7211Z" fill="#3F3D56"/>
<path d="M245.617 76.7836H212.017V78.0665H245.617V76.7836Z" fill="#3F3D56"/>
<path d="M245.617 80.8461H212.017V82.129H245.617V80.8461Z" fill="#3F3D56"/>
<path d="M245.617 84.9087H212.017V86.1916H245.617V84.9087Z" fill="#3F3D56"/>
<path d="M229.991 51.6216H224.165V57.6085H229.991V51.6216Z" fill="#F2F2F2"/>
<path d="M226.395 53.1187V60.3886H233.47V53.1187H226.395ZM233.163 60.0732H226.702V53.4341H233.163V60.0732Z" fill="#3F3D56"/>
<path opacity="0.1" d="M252.017 119.253V128.572C252.017 130.398 251.311 132.149 250.055 133.44C248.799 134.732 247.094 135.457 245.317 135.458H212.317C210.54 135.457 208.836 134.732 207.58 133.44C206.323 132.149 205.618 130.398 205.618 128.572V81.5868L233.42 104.156L233.896 104.543L239.068 108.74L239.551 109.133L252.017 119.253Z" fill="black"/>
<path d="M225.963 132.63C231.726 132.63 236.398 127.829 236.398 121.907C236.398 115.984 231.726 111.183 225.963 111.183C220.199 111.183 215.527 115.984 215.527 121.907C215.527 127.829 220.199 132.63 225.963 132.63Z" fill="#F2F2F2"/>
<path d="M79.1663 160C75.0729 160 71.0714 158.753 67.6679 156.416C64.2643 154.079 61.6116 150.758 60.0451 146.872C58.4786 142.986 58.0688 138.71 58.8673 134.584C59.6659 130.459 61.6371 126.67 64.5316 123.695C67.426 120.721 71.1138 118.696 75.1286 117.875C79.1433 117.055 83.3047 117.476 87.0866 119.085C90.8684 120.695 94.1007 123.421 96.3749 126.918C98.6491 130.415 99.8629 134.527 99.8629 138.733C99.8567 144.372 97.6742 149.777 93.7942 153.764C89.9142 157.751 84.6535 159.994 79.1663 160ZM79.1663 117.955C75.167 117.955 71.2575 119.174 67.9322 121.457C64.6069 123.74 62.0151 126.985 60.4847 130.782C58.9542 134.579 58.5538 138.756 59.334 142.787C60.1142 146.817 62.0401 150.52 64.868 153.425C67.6959 156.331 71.2989 158.31 75.2214 159.112C79.1439 159.914 83.2096 159.502 86.9045 157.93C90.5994 156.357 93.7574 153.694 95.9793 150.277C98.2012 146.86 99.3872 142.843 99.3872 138.733C99.3811 133.225 97.2487 127.943 93.4579 124.048C89.6671 120.153 84.5273 117.962 79.1663 117.955Z" fill="#3F3D56"/>
<path d="M229.038 130.178C226.451 130.178 223.921 129.389 221.769 127.912C219.618 126.435 217.941 124.335 216.95 121.878C215.96 119.422 215.701 116.718 216.206 114.11C216.711 111.502 217.957 109.107 219.787 107.227C221.616 105.346 223.948 104.066 226.486 103.547C229.024 103.028 231.655 103.295 234.046 104.312C236.436 105.33 238.48 107.053 239.917 109.264C241.355 111.475 242.123 114.074 242.123 116.733C242.119 120.298 240.739 123.715 238.286 126.235C235.833 128.756 232.507 130.174 229.038 130.178ZM229.038 103.778C226.545 103.778 224.107 104.537 222.034 105.961C219.96 107.385 218.344 109.408 217.39 111.775C216.436 114.143 216.186 116.748 216.672 119.261C217.159 121.774 218.36 124.082 220.123 125.894C221.886 127.706 224.133 128.94 226.579 129.44C229.024 129.94 231.56 129.683 233.863 128.703C236.167 127.722 238.136 126.061 239.522 123.931C240.907 121.8 241.647 119.296 241.647 116.733C241.643 113.298 240.313 110.005 237.95 107.576C235.586 105.148 232.381 103.781 229.038 103.778Z" fill="#3F3D56"/>
</g>
<defs>
<clipPath id="clip0">
<rect width="271" height="160" fill="white" transform="translate(3)"/>
</clipPath>
</defs>
</svg>
