<svg width="30" height="30" viewBox="0 0 30 30" fill="none" xmlns="http://www.w3.org/2000/svg">
<path d="M24.8484 4.04297H18.8086V2.26664C18.8086 1.13021 17.8954 0.234375 16.759 0.234375H13.241C12.1045 0.234375 11.1914 1.13021 11.1914 2.26664V4.04297H5.15156C4.77744 4.04297 4.45312 4.35129 4.45312 4.72535V7.40256C4.45312 7.77668 4.77744 8.08594 5.15156 8.08594H5.85797C5.85674 8.11594 5.85938 8.14605 5.85938 8.17635V27.7505C5.85938 28.9281 6.81029 29.8828 7.98791 29.8828H22.0121C23.1897 29.8828 24.1406 28.9281 24.1406 27.7505V8.17635C24.1406 8.146 24.1433 8.11594 24.142 8.08594H24.8484C25.2225 8.08594 25.5469 7.77668 25.5469 7.40262V4.72535C25.5469 4.35129 25.2226 4.04297 24.8484 4.04297ZM13.2422 2.28516H16.7578V4.04297H13.2422V2.28516Z" fill="#597B91"/>
<path d="M24.1443 9.70273H5.85568V8.17636H24.1444V9.70273H24.1443ZM10.7419 26.272V12.6145C10.7419 12.5027 10.6974 12.3954 10.6183 12.3162C10.5392 12.2371 10.4319 12.1927 10.32 12.1927H9.71953C9.60764 12.1927 9.50033 12.2371 9.42122 12.3162C9.3421 12.3954 9.29765 12.5027 9.29765 12.6145V26.272C9.29765 26.3839 9.3421 26.4912 9.42122 26.5704C9.50033 26.6495 9.60764 26.6939 9.71953 26.6939H10.32C10.4319 26.6939 10.5392 26.6494 10.6183 26.5703C10.6974 26.4912 10.7419 26.3839 10.7419 26.272ZM15.7221 26.272V12.6145C15.7221 12.5027 15.6777 12.3954 15.5985 12.3162C15.5194 12.2371 15.4121 12.1927 15.3002 12.1927H14.6998C14.5879 12.1927 14.4806 12.2371 14.4014 12.3162C14.3223 12.3954 14.2779 12.5027 14.2779 12.6145V26.272C14.2779 26.3839 14.3223 26.4912 14.4014 26.5704C14.4806 26.6495 14.5879 26.6939 14.6998 26.6939H15.3002C15.3556 26.6939 15.4105 26.683 15.4617 26.6618C15.5129 26.6406 15.5594 26.6095 15.5986 26.5703C15.6377 26.5312 15.6688 26.4846 15.69 26.4334C15.7112 26.3823 15.7221 26.3274 15.7221 26.272ZM20.7024 26.272V12.6145C20.7024 12.5027 20.6579 12.3954 20.5788 12.3162C20.4997 12.2371 20.3924 12.1927 20.2805 12.1927H19.68C19.5682 12.1927 19.4609 12.2371 19.3817 12.3162C19.3026 12.3954 19.2582 12.5027 19.2582 12.6145V26.272C19.2582 26.3839 19.3026 26.4912 19.3817 26.5704C19.4609 26.6495 19.5682 26.6939 19.68 26.6939H20.2805C20.3924 26.6939 20.4997 26.6494 20.5788 26.5703C20.6579 26.4912 20.7024 26.3839 20.7024 26.272Z" fill="#2B3B47"/>
</svg>
