<svg width="31" height="31" viewBox="0 0 31 31" fill="none" xmlns="http://www.w3.org/2000/svg">
<path fill-rule="evenodd" clip-rule="evenodd" d="M12.9167 2.58335C12.9169 2.31397 12.8329 2.05126 12.6765 1.83197C12.52 1.61269 12.2989 1.44781 12.0441 1.36041C11.7893 1.273 11.5135 1.26745 11.2554 1.34453C10.9973 1.42161 10.7697 1.57746 10.6046 1.79027L1.56292 13.4153C1.38653 13.642 1.29077 13.9211 1.29077 14.2083C1.29077 14.4956 1.38653 14.7747 1.56292 15.0014L10.6046 26.6264C10.7697 26.8392 10.9973 26.9951 11.2554 27.0722C11.5135 27.1492 11.7893 27.1437 12.0441 27.0563C12.2989 26.9689 12.52 26.804 12.6765 26.5847C12.8329 26.3654 12.9169 26.1027 12.9167 25.8333V20.6796C19.8645 20.8243 23.2022 22.1431 24.8788 23.5768C26.4727 24.9395 26.7646 26.5425 27.0682 28.2216L27.147 28.6543C27.2049 28.964 27.374 29.2417 27.6225 29.4354C27.8709 29.6291 28.1816 29.7253 28.496 29.7059C28.8104 29.6865 29.1069 29.5529 29.3297 29.3303C29.5525 29.1076 29.6862 28.8112 29.7057 28.4968C29.9266 24.9473 29.5947 19.8038 27.0875 15.5013C24.654 11.3253 20.2714 8.11426 12.9167 7.77843V2.58335Z" fill="black"/>
</svg>
