<svg width="38" height="30" viewBox="0 0 38 30" fill="none" xmlns="http://www.w3.org/2000/svg">
<path d="M34.8413 17.6554L37.96 5.46791C38.1851 4.58795 37.4321 3.75 36.416 3.75H10.5033L9.89861 1.12441C9.74793 0.469981 9.09955 0 8.3474 0H1.58333C0.708872 0 0 0.62959 0 1.40625V2.34375C0 3.12041 0.708872 3.75 1.58333 3.75H6.19367L10.8281 23.8731C9.71936 24.4395 8.97222 25.5013 8.97222 26.7188C8.97222 28.5309 10.6263 30 12.6667 30C14.7071 30 16.3611 28.5309 16.3611 26.7188C16.3611 25.8004 15.9358 24.9706 15.2512 24.375H29.0821C28.3976 24.9706 27.9722 25.8004 27.9722 26.7188C27.9722 28.5309 29.6263 30 31.6667 30C33.7071 30 35.3611 28.5309 35.3611 26.7188C35.3611 25.4196 34.5109 24.297 33.2778 23.7653L33.6418 22.3429C33.8669 21.4629 33.1138 20.625 32.0978 20.625H14.3897L13.9579 18.75H33.2973C34.0366 18.75 34.6774 18.2957 34.8413 17.6554Z" fill="white"/>
</svg>
