<svg width="24" height="24" viewBox="0 0 24 24" fill="none" xmlns="http://www.w3.org/2000/svg">
<path d="M11.273 3.687C11.1828 3.59153 11.1123 3.47923 11.0654 3.3565C11.0186 3.23377 10.9964 3.10302 11.0002 2.97172C11.0039 2.84042 11.0334 2.71113 11.0871 2.59125C11.1408 2.47136 11.2175 2.36322 11.313 2.273C11.4085 2.18279 11.5208 2.11226 11.6435 2.06544C11.7662 2.01863 11.897 1.99644 12.0283 2.00016C12.1596 2.00387 12.2889 2.03341 12.4088 2.08709C12.5286 2.14077 12.6368 2.21753 12.727 2.313L21.227 11.313C21.4025 11.4987 21.5003 11.7445 21.5003 12C21.5003 12.2555 21.4025 12.5013 21.227 12.687L12.727 21.688C12.6374 21.7856 12.5293 21.8643 12.4089 21.9198C12.2886 21.9752 12.1585 22.0062 12.0261 22.0109C11.8937 22.0156 11.7617 21.9939 11.6377 21.9472C11.5138 21.9004 11.4003 21.8295 11.304 21.7386C11.2077 21.6476 11.1304 21.5384 11.0766 21.4173C11.0229 21.2963 10.9937 21.1657 10.9908 21.0333C10.9879 20.9008 11.0114 20.7691 11.0598 20.6458C11.1083 20.5225 11.1807 20.4101 11.273 20.315L19.125 12L11.273 3.687Z" fill="black"/>
</svg>
