<svg width="30" height="30" viewBox="0 0 30 30" fill="none" xmlns="http://www.w3.org/2000/svg">
<path d="M10.5 15C13.8141 15 16.5 11.6426 16.5 7.5C16.5 3.35742 13.8141 0 10.5 0C7.18594 0 4.5 3.35742 4.5 7.5C4.5 11.6426 7.18594 15 10.5 15ZM14.7 16.875H13.9172C12.8766 17.4727 11.7188 17.8125 10.5 17.8125C9.28125 17.8125 8.12813 17.4727 7.08281 16.875H6.3C2.82187 16.875 0 20.4023 0 24.75V27.1875C0 28.7402 1.00781 30 2.25 30H15.1359C15.0234 29.6016 14.9766 29.1797 15.0141 28.752L15.3328 25.1836L15.3891 24.5332L15.7594 24.0703L19.3828 19.541C18.2344 17.918 16.5703 16.875 14.7 16.875ZM16.8234 25.3887L16.5047 28.9629C16.4531 29.5605 16.8563 30.0645 17.3297 29.9941L20.1844 29.5957L26.6484 21.5156L23.2875 17.3145L16.8234 25.3887ZM29.6719 15.7559L27.8953 13.5352C27.4594 12.9902 26.7469 12.9902 26.3109 13.5352L24.5391 15.75L24.3469 15.9902L27.7125 20.1914L29.6719 17.7422C30.1078 17.1914 30.1078 16.3066 29.6719 15.7559Z" fill="black"/>
</svg>
