<svg width="174" height="162" viewBox="0 0 174 162" fill="none" xmlns="http://www.w3.org/2000/svg">
<g clip-path="url(#clip0)">
<path d="M132.59 38.4973H131.697V14.113C131.697 10.37 130.205 6.78032 127.55 4.13361C124.895 1.48691 121.294 0 117.539 0H65.7166C61.9618 0 58.3608 1.48691 55.7058 4.13361C53.0508 6.78032 51.5592 10.37 51.5592 14.113V147.887C51.5592 151.63 53.0508 155.22 55.7058 157.866C58.3608 160.513 61.9618 162 65.7166 162H117.54C121.295 162 124.896 160.513 127.551 157.866C130.206 155.22 131.698 151.63 131.698 147.887V55.8544H132.59V38.4973Z" fill="#3F3D56"/>
<path d="M128.811 13.1687V148.832C128.811 151.67 127.68 154.391 125.667 156.398C123.654 158.405 120.925 159.533 118.078 159.534H65.1892C62.3412 159.535 59.6097 158.407 57.5956 156.4C55.5814 154.393 54.4496 151.67 54.449 148.831V13.1687C54.4499 10.3298 55.5819 7.60758 57.596 5.60063C59.6101 3.59368 62.3414 2.4664 65.1892 2.46671H71.6047C71.2897 3.23897 71.1699 4.07655 71.2556 4.90581C71.3414 5.73508 71.6302 6.53064 72.0967 7.22258C72.5631 7.91452 73.1929 8.48166 73.9307 8.87413C74.6685 9.2666 75.4918 9.4724 76.328 9.47344H106.48C107.316 9.47231 108.14 9.2664 108.878 8.87381C109.615 8.48122 110.245 7.91397 110.711 7.22192C111.178 6.52987 111.466 5.73422 111.552 4.9049C111.638 4.07558 111.518 3.23799 111.202 2.46576H118.075C120.921 2.46626 123.652 3.59366 125.665 5.6001C127.678 7.60654 128.809 10.3278 128.81 13.1656L128.811 13.1687Z" fill="#E6E6E6"/>
<path d="M123.176 152.453H60.0843C59.5457 152.452 59.0293 152.239 58.6485 151.859C58.2677 151.479 58.0535 150.965 58.0529 150.428V18.2073C58.0535 17.6704 58.2677 17.1557 58.6485 16.7761C59.0293 16.3964 59.5457 16.1829 60.0843 16.1823H123.176C123.715 16.1829 124.231 16.3964 124.612 16.7761C124.993 17.1557 125.207 17.6704 125.207 18.2073V150.428C125.207 150.965 124.993 151.479 124.612 151.859C124.231 152.239 123.715 152.452 123.176 152.453V152.453Z" fill="white"/>
<path d="M91.3912 60.823C100.991 60.823 108.774 53.0649 108.774 43.4947C108.774 33.9246 100.991 26.1665 91.3912 26.1665C81.791 26.1665 74.0085 33.9246 74.0085 43.4947C74.0085 53.0649 81.791 60.823 91.3912 60.823Z" fill="#E6E6E6"/>
<path d="M91.1522 58.4771C99.4528 58.4771 106.182 51.7692 106.182 43.4947C106.182 35.2202 99.4528 28.5124 91.1522 28.5124C82.8517 28.5124 76.1227 35.2202 76.1227 43.4947C76.1227 51.7692 82.8517 58.4771 91.1522 58.4771Z" fill="white"/>
<path d="M91.4868 34.9969C89.792 34.9969 88.1352 35.4979 86.7261 36.4365C85.3169 37.3751 84.2186 38.7092 83.57 40.2701C82.9214 41.831 82.7517 43.5485 83.0824 45.2055C83.413 46.8625 84.2291 48.3846 85.4275 49.5792C86.6259 50.7739 88.1528 51.5874 89.815 51.9171C91.4772 52.2467 93.2002 52.0775 94.766 51.4309C96.3318 50.7844 97.6701 49.6895 98.6116 48.2848C99.5532 46.88 100.056 45.2285 100.056 43.539C100.056 41.2735 99.153 39.1008 97.546 37.4988C95.939 35.8969 93.7594 34.9969 91.4868 34.9969V34.9969ZM91.4868 37.5596C91.9952 37.5596 92.4922 37.7099 92.915 37.9915C93.3377 38.2731 93.6672 38.6733 93.8618 39.1416C94.0564 39.6098 94.1073 40.1251 94.0081 40.6222C93.9089 41.1193 93.6641 41.576 93.3045 41.9344C92.945 42.2928 92.487 42.5368 91.9883 42.6357C91.4896 42.7346 90.9727 42.6839 90.503 42.4899C90.0332 42.2959 89.6317 41.9675 89.3493 41.546C89.0668 41.1246 88.916 40.6291 88.916 40.1223C88.916 39.7857 88.9825 39.4525 89.1117 39.1416C89.2409 38.8306 89.4302 38.5481 89.6689 38.3102C89.9077 38.0722 90.1911 37.8834 90.503 37.7546C90.8149 37.6259 91.1492 37.5596 91.4868 37.5596V37.5596ZM91.4868 49.8963C90.4712 49.8917 89.4721 49.6402 88.5762 49.1636C87.6802 48.6869 86.9144 47.9996 86.3453 47.1612C86.3864 45.4528 89.7728 44.5122 91.4868 44.5122C93.2007 44.5122 96.5869 45.4528 96.6283 47.1612C96.0585 47.9991 95.2926 48.6861 94.3968 49.1628C93.501 49.6395 92.5022 49.8915 91.4868 49.897V49.8963Z" fill="#0000E6"/>
<path d="M105.737 66.6461H75.6636V68.8994H105.737V66.6461Z" fill="#E6E6E6"/>
<path d="M109.487 72.5013H71.6399V74.7545H109.487V72.5013Z" fill="#E6E6E6"/>
<path d="M118.288 89.3197H64.9722V142.468H118.288V89.3197Z" fill="#E6E6E6"/>
<path d="M116.88 90.4442H65.8199V141.344H116.88V90.4442Z" fill="white"/>
<path d="M96.211 95.3575H76.3352V96.8467H96.211V95.3575Z" fill="#E6E6E6"/>
<path d="M107.028 99.7296H76.3352V101.219H107.028V99.7296Z" fill="#0000E6"/>
<path d="M101.668 103.893H76.6542V105.382H101.668V103.893Z" fill="#E6E6E6"/>
<path d="M90.9378 108.462H76.3352V109.951H90.9378V108.462Z" fill="#E6E6E6"/>
<path d="M98.3743 112.924H76.3352V114.413H98.3743V112.924Z" fill="#0000E6"/>
<path d="M96.211 117.414H76.3352V118.903H96.211V117.414Z" fill="#E6E6E6"/>
<path d="M107.028 121.786H76.3352V123.275H107.028V121.786Z" fill="#0000E6"/>
<path d="M101.668 125.95H76.6542V127.439H101.668V125.95Z" fill="#E6E6E6"/>
<path d="M90.9378 130.518H76.3352V132.008H90.9378V130.518Z" fill="#E6E6E6"/>
<path d="M98.3743 134.981H76.3352V136.47H98.3743V134.981Z" fill="#E6E6E6"/>
<path d="M165.561 115.55C165.418 115.798 165.229 116.016 165.002 116.191C164.775 116.365 164.516 116.494 164.24 116.569C163.964 116.644 163.675 116.664 163.391 116.628C163.106 116.592 162.832 116.501 162.583 116.359C162.335 116.217 162.116 116.028 161.941 115.802C161.766 115.576 161.637 115.318 161.561 115.042C161.486 114.767 161.466 114.479 161.502 114.196C161.538 113.912 161.63 113.639 161.772 113.391C161.777 113.382 161.782 113.374 161.787 113.366C161.848 113.264 161.917 113.166 161.993 113.075L160.157 100.034L160.102 99.6432L159.729 96.9821L159.674 96.5985L159.878 96.6081L163.434 96.7701L164.387 96.8129L164.507 99.2406L165.183 112.889C165.536 113.226 165.766 113.672 165.834 114.154C165.903 114.637 165.806 115.129 165.561 115.55V115.55Z" fill="#FFB8B8"/>
<path d="M160.113 99.7614L164.628 99.3485C164.863 99.3264 165.078 99.2129 165.229 99.0327C165.38 98.8526 165.453 98.6204 165.432 98.3867L164.596 89.026C164.556 88.5796 164.428 88.1454 164.22 87.7482C164.011 87.351 163.727 86.9986 163.382 86.7112C163.037 86.4237 162.638 86.2067 162.209 86.0727C161.78 85.9387 161.329 85.8902 160.881 85.9301C160.433 85.9699 159.998 86.0973 159.599 86.305C159.201 86.5127 158.847 86.7965 158.559 87.1404C158.271 87.4842 158.053 87.8813 157.919 88.309C157.784 88.7367 157.736 89.1866 157.776 89.633C157.781 89.6975 157.789 89.7617 157.798 89.8258L159.153 99.0073C159.184 99.2177 159.289 99.4099 159.451 99.549C159.612 99.6881 159.818 99.7648 160.031 99.7652C160.059 99.7656 160.086 99.7644 160.113 99.7614V99.7614Z" fill="#0000E6"/>
<path d="M163.535 92.1991C163.992 90.9094 164.013 89.5063 163.596 88.2036C163.178 86.9009 162.345 85.77 161.222 84.9834C159.52 83.822 157.189 83.4051 154.68 86.383C149.661 92.3389 148.347 98.8904 148.347 98.8904L158.623 100.558C158.623 100.558 162.118 96.2996 163.535 92.1991Z" fill="#0000E6"/>
<path d="M146.915 159.287H143.985L142.591 148.022H146.915L146.915 159.287Z" fill="#FFB8B8"/>
<path d="M138.335 161.999H147.543V158.453H141.893C140.949 158.453 140.044 158.826 139.377 159.491C138.71 160.157 138.335 161.059 138.335 161.999V161.999Z" fill="#2F2E41"/>
<path d="M171.003 156.74L168.221 157.657L163.351 147.396L167.456 146.044L171.003 156.74Z" fill="#FFB8B8"/>
<path d="M163.71 161.999L172.453 159.119L171.336 155.751L165.971 157.519C165.528 157.665 165.117 157.897 164.764 158.201C164.41 158.505 164.12 158.876 163.91 159.292C163.7 159.708 163.574 160.161 163.54 160.626C163.505 161.09 163.563 161.557 163.71 161.999V161.999Z" fill="#2F2E41"/>
<path d="M157.085 82.0295C160.326 82.0295 162.954 79.4098 162.954 76.1782C162.954 72.9467 160.326 70.327 157.085 70.327C153.843 70.327 151.215 72.9467 151.215 76.1782C151.215 79.4098 153.843 82.0295 157.085 82.0295Z" fill="#FFB8B8"/>
<path d="M151.945 156.152L154.666 138.249C154.695 138.058 154.79 137.883 154.934 137.754C155.078 137.625 155.263 137.55 155.457 137.541C155.65 137.533 155.841 137.592 155.996 137.708C156.151 137.824 156.26 137.99 156.306 138.178L160.449 155.238C160.515 155.5 160.676 155.727 160.901 155.877C161.126 156.026 161.398 156.086 161.665 156.045L173.095 154.214C173.246 154.19 173.391 154.133 173.519 154.049C173.647 153.964 173.755 153.853 173.836 153.723C173.918 153.594 173.97 153.448 173.991 153.296C174.011 153.145 173.998 152.99 173.954 152.844L159.05 103.863C159.008 103.724 159.003 103.576 159.036 103.434L159.532 101.29C159.586 101.057 159.561 100.814 159.46 100.597C159.36 100.381 159.189 100.204 158.976 100.095C156.946 99.0631 151.806 96.9171 147.927 99.2677C147.801 99.3443 147.692 99.4456 147.607 99.5655C147.521 99.6853 147.461 99.8213 147.43 99.965L135.788 154.514C135.756 154.662 135.757 154.815 135.789 154.964C135.821 155.112 135.884 155.252 135.975 155.374C136.065 155.496 136.18 155.597 136.313 155.671C136.445 155.746 136.592 155.791 136.744 155.805L150.786 157.058C150.818 157.061 150.85 157.063 150.882 157.063C151.139 157.062 151.387 156.97 151.582 156.803C151.777 156.636 151.906 156.405 151.945 156.151L151.945 156.152Z" fill="#2F2E41"/>
<path d="M160.977 72.0441C160.534 71.7788 160.142 71.4386 159.816 71.0388C159.656 70.8368 159.55 70.597 159.51 70.3424C159.469 70.0879 159.495 69.8272 159.585 69.5856C159.881 68.9333 160.762 68.7279 161.445 68.9492C162.128 69.1705 162.656 69.7049 163.155 70.2197C163.594 70.6724 164.046 71.1469 164.254 71.7423C164.462 72.3376 164.355 73.0926 163.837 73.454C163.328 73.8085 162.596 73.6634 162.107 73.2827C161.617 72.902 161.314 72.3369 161.025 71.789L160.977 72.0441Z" fill="#2F2E41"/>
<path d="M162.965 70.377C162.997 68.7284 164.882 67.546 166.511 67.8383C168.139 68.1307 169.39 69.5143 170.016 71.0405C171.34 74.265 170.347 77.9443 169.071 81.1893C167.796 84.4343 166.218 87.7262 166.404 91.2054C166.53 93.0859 167.163 94.8976 168.236 96.4491C169.31 98.0006 170.783 99.2344 172.502 100.02C170.664 100.85 168.468 99.9927 166.924 98.6984C163.495 95.8241 162.172 90.7065 163.779 86.5379C164.571 84.4817 165.969 82.7226 167.059 80.8069C168.15 78.8913 168.95 76.6335 168.387 74.5035C167.824 72.3734 165.427 70.649 163.378 71.4731L162.965 70.377Z" fill="#2F2E41"/>
<path d="M156.733 78.7748C157.244 77.9129 157.76 76.7812 156.825 76.0277C156.622 75.8713 156.389 75.7571 156.141 75.6916C155.893 75.6261 155.634 75.6108 155.379 75.6465C154.325 75.7733 153.177 75.8254 152.156 75.4435C151.773 75.3122 151.421 75.1056 151.12 74.8358C150.818 74.5661 150.575 74.2388 150.403 73.8733C149.877 72.6288 150.536 71.1165 151.637 70.3298C152.311 69.8661 153.108 69.6109 153.926 69.5965C154.745 69.582 155.55 69.8089 156.24 70.2486C157.666 69.6204 159.397 69.8998 160.694 70.7646C161.99 71.6294 162.877 73.0143 163.359 74.493C163.802 75.7658 163.879 77.1373 163.579 78.4513C163.338 79.3654 162.879 80.2081 162.242 80.908C161.605 81.608 160.808 82.1446 159.919 82.4724C159.573 82.6086 159.196 82.6517 158.828 82.5974C158.46 82.543 158.112 82.3931 157.82 82.1627C157.82 82.1627 157.011 81.4587 156.758 80.6109C156.563 79.9588 156.459 79.2353 156.733 78.7748Z" fill="#2F2E41"/>
<path d="M139.32 83.9959C139.349 84.1244 139.368 84.2551 139.377 84.3866L149.643 90.2906L152.138 88.8585L154.798 92.3301L150.628 95.2933C150.291 95.5327 149.885 95.6568 149.472 95.6467C149.058 95.6367 148.659 95.4931 148.334 95.2375L137.747 86.9122C137.269 87.0886 136.748 87.1159 136.255 86.9902C135.761 86.8646 135.317 86.5921 134.982 86.2089C134.648 85.8257 134.438 85.35 134.381 84.8452C134.325 84.3403 134.423 83.8302 134.665 83.3826C134.906 82.9351 135.278 82.5714 135.731 82.3398C136.185 82.1083 136.699 82.02 137.204 82.0865C137.709 82.1531 138.182 82.3715 138.56 82.7126C138.937 83.0536 139.202 83.5013 139.318 83.9959H139.32Z" fill="#FFB8B8"/>
<path d="M149.986 90.5703L153.304 94.8571C153.399 94.9789 153.518 95.079 153.655 95.1506C153.792 95.2222 153.942 95.2637 154.096 95.2721C154.251 95.2805 154.405 95.2558 154.549 95.1995C154.692 95.1432 154.822 95.0567 154.929 94.9459L158.686 91.0577C159.321 90.5862 159.743 89.8823 159.858 89.1008C159.973 88.3194 159.772 87.5244 159.299 86.8908C158.825 86.2572 158.119 85.8369 157.335 85.7223C156.552 85.6077 155.754 85.8082 155.119 86.2798C155.086 86.3039 155.054 86.3286 155.023 86.354L150.312 88.9798C150.177 89.055 150.06 89.1584 149.969 89.2828C149.878 89.4071 149.814 89.5496 149.783 89.7006C149.752 89.8515 149.754 90.0073 149.789 90.1574C149.824 90.3075 149.891 90.4483 149.986 90.5703L149.986 90.5703Z" fill="#0000E6"/>
<path d="M29.5626 100.787C29.4454 100.84 29.3326 100.903 29.2254 100.974L18.5065 96.4139L18.1241 93.5992L13.8411 93.573L14.0941 100.029L28.242 103.759C28.2718 103.857 28.3076 103.954 28.3491 104.047C28.5536 104.482 28.8826 104.847 29.2947 105.097C29.7067 105.346 30.1835 105.469 30.6651 105.449C31.1468 105.429 31.6118 105.267 32.0017 104.985C32.3917 104.703 32.6893 104.312 32.857 103.861C33.0248 103.411 33.0553 102.921 32.9446 102.453C32.834 101.985 32.5873 101.561 32.2353 101.232C31.8834 100.904 31.4419 100.686 30.9665 100.607C30.491 100.528 30.0027 100.591 29.5629 100.788L29.5626 100.787Z" fill="#A0616A"/>
<path d="M12.2834 159.288H15.2133L16.6071 148.022H12.2829L12.2834 159.288Z" fill="#A0616A"/>
<path d="M17.3061 158.453H11.6556V161.999H20.8639C20.8639 161.058 20.489 160.156 19.8218 159.491C19.1546 158.826 18.2497 158.452 17.3061 158.452H17.3061L17.3061 158.453Z" fill="#2F2E41"/>
<path d="M0.888611 158.462L3.80422 158.748L6.29945 147.673L1.99606 147.252L0.888611 158.462Z" fill="#A0616A"/>
<path d="M5.97094 158.123L0.348659 157.571L0 161.1L9.16201 162C9.2078 161.536 9.16158 161.068 9.02598 160.623C8.89038 160.177 8.66806 159.763 8.37172 159.403C8.07538 159.043 7.71082 158.744 7.29886 158.525C6.88689 158.305 6.43559 158.169 5.97071 158.123L5.97094 158.123Z" fill="#2F2E41"/>
<path d="M11.4677 81.6503C14.7095 81.6503 17.3374 79.0306 17.3374 75.799C17.3374 72.5674 14.7095 69.9477 11.4677 69.9477C8.226 69.9477 5.59805 72.5674 5.59805 75.799C5.59805 79.0306 8.226 81.6503 11.4677 81.6503Z" fill="#A0616A"/>
<path d="M15.8682 157.009C16.12 157.01 16.364 156.922 16.5571 156.761C16.7501 156.599 16.8798 156.375 16.9233 156.128C18.4387 147.738 23.3969 120.297 23.5154 119.537C23.5181 119.519 23.5193 119.502 23.5192 119.484V117.438C23.5194 117.363 23.4961 117.291 23.4526 117.23L22.7977 116.316C22.7666 116.272 22.7258 116.236 22.6784 116.21C22.631 116.184 22.5783 116.169 22.5243 116.167C18.7909 115.993 6.56402 115.481 5.97325 116.217C5.38009 116.955 5.59088 119.196 5.63867 119.638L5.63628 119.684L0.143236 154.704C0.100207 154.984 0.169243 155.269 0.335402 155.498C0.50156 155.727 0.751476 155.881 1.03106 155.928L4.46192 156.491C4.71744 156.532 4.97919 156.48 5.19958 156.345C5.41997 156.21 5.58435 156 5.66282 155.754C6.7239 152.374 10.2821 141.003 11.5153 136.603C11.5232 136.576 11.5409 136.552 11.5651 136.536C11.5893 136.52 11.6184 136.514 11.647 136.518C11.6756 136.522 11.7018 136.536 11.7207 136.558C11.7396 136.58 11.7499 136.608 11.7497 136.636C11.6881 140.831 11.5392 151.532 11.4869 155.227L11.4814 155.626C11.4791 155.895 11.5783 156.156 11.7594 156.356C11.9405 156.556 12.1904 156.681 12.4595 156.706L15.7678 157.005C15.8011 157.008 15.8346 157.01 15.8682 157.009V157.009Z" fill="#2F2E41"/>
<path d="M15.193 83.9512C16.2173 84.5582 16.8303 85.6736 17.1821 86.81C17.8333 88.9115 18.2252 91.0842 18.3493 93.2802L18.7212 99.8555L23.3228 117.287C19.3344 120.651 17.0339 119.887 11.6649 117.135C6.2959 114.383 5.68266 118.052 5.68266 118.052L4.60915 103.22L3.07535 87.0127C3.4197 86.5994 3.80945 86.2259 4.23729 85.8992C5.655 84.8 7.30449 84.0359 9.06145 83.6645C10.8184 83.2931 12.637 83.3241 14.3802 83.7551L15.193 83.9512Z" fill="#E6E6E6"/>
<path d="M16.6876 104.307C16.5639 104.353 16.4441 104.409 16.3291 104.474L5.73019 99.1853L5.5543 96.3203L1.18232 96.0199L0.94812 102.551L15.1118 107.22C15.2273 107.715 15.4912 108.163 15.8685 108.504C16.2457 108.846 16.7183 109.065 17.2234 109.132C17.7285 109.199 18.2422 109.112 18.6961 108.881C19.1501 108.65 19.5227 108.287 19.7645 107.84C20.0063 107.392 20.1058 106.882 20.0497 106.378C19.9936 105.873 19.7846 105.397 19.4506 105.013C19.1165 104.629 18.6732 104.356 18.1796 104.23C17.686 104.104 17.1655 104.13 16.6874 104.306L16.6876 104.307Z" fill="#A0616A"/>
<path d="M3.15181 87.0856C0.544253 88.003 0.0846863 97.9429 0.0846863 97.9429C3.15253 96.261 6.83384 99.0133 6.83384 99.0133C6.83384 99.0133 7.60074 96.4137 8.52106 93.0498C8.79897 92.1036 8.83221 91.1027 8.61768 90.1402C8.40316 89.1777 7.94784 88.285 7.29412 87.5451C7.29412 87.5451 5.75962 86.1677 3.15181 87.0856Z" fill="#E6E6E6"/>
<path d="M6.20578 77.3465C6.93707 76.7633 7.93483 77.823 7.93483 77.823L8.51986 72.5745C8.51986 72.5745 12.1763 73.0112 14.5169 72.4287C16.8575 71.8462 17.2229 74.543 17.2229 74.543C17.3436 73.4537 17.3681 72.3559 17.2961 71.2623C17.1498 69.9501 15.2485 68.6376 11.8843 67.7628C8.5201 66.888 6.765 70.6791 6.765 70.6791C4.42345 71.8452 5.47354 77.9297 6.20578 77.3465Z" fill="#2F2E41"/>
</g>
<defs>
<clipPath id="clip0">
<rect width="174" height="162" fill="white"/>
</clipPath>
</defs>
</svg>
