<svg width="121" height="102" viewBox="0 0 121 102" fill="none" xmlns="http://www.w3.org/2000/svg">
<path d="M17.9428 97.7066L20.2903 98.3617L23.939 89.6343L20.4745 88.6674L17.9428 97.7066Z" fill="#FFB8B8"/>
<path d="M24.2082 101.801L16.8303 99.7423L17.6273 96.8966L22.44 98.2398C23.1203 98.4297 23.6972 98.8816 24.0438 99.4962C24.3904 100.111 24.4782 100.837 24.288 101.517L24.2082 101.801Z" fill="#2F2E41"/>
<path d="M45.9452 99.5418L48.3828 99.5417L49.5419 90.1557L45.9444 90.1559L45.9452 99.5418Z" fill="#FFB8B8"/>
<path d="M53.084 101.801L45.4231 101.801L45.4229 98.8467L50.4201 98.8462C50.7699 98.8462 51.1162 98.9149 51.4394 99.0485C51.7626 99.1821 52.0563 99.378 52.3036 99.6249C52.551 99.8718 52.7472 100.165 52.8811 100.487C53.015 100.81 53.0839 101.156 53.0839 101.505L53.084 101.801Z" fill="#2F2E41"/>
<path d="M27.8316 60.575L22.2211 74.2958L45.1307 79.4338L45.4229 71.7572L35.0201 60.6959L27.8316 60.575Z" fill="#B3B3B3"/>
<path d="M40.2615 39.2006C42.7993 37.8157 43.7319 34.6392 42.3447 32.1057C40.9574 29.5723 37.7755 28.6412 35.2377 30.0261C32.6999 31.411 31.7672 34.5875 33.1545 37.121C34.5418 39.6544 37.7237 40.5855 40.2615 39.2006Z" fill="#FFB8B8"/>
<path d="M41.4915 59.8158L31.1217 55.5781L30.1984 49.5007C29.9265 47.7243 30.3511 45.9116 31.3838 44.4398C32.4166 42.9679 33.9779 41.9501 35.7432 41.5982L37.1148 41.3232C38.2416 41.098 39.4064 41.1508 40.5081 41.477C41.6098 41.8032 42.6151 42.3929 43.4366 43.195C44.2414 43.9626 44.8431 44.9172 45.1882 45.9736C45.5333 47.03 45.611 48.1552 45.4143 49.2488C45.2594 50.1859 44.8787 51.0714 44.3049 51.8291C41.0473 56.0818 41.4655 59.617 41.4701 59.6523L41.4915 59.8158Z" fill="#0000E6"/>
<path d="M45.7139 75.6648L40.5169 67.4139L42.1538 52.4052L39.8927 41.1802L40.0129 41.1832C41.328 41.2156 42.5803 41.7517 43.5103 42.6806C44.4404 43.6094 44.9769 44.8598 45.0088 46.1727L47.2085 57.1722L45.7139 75.6648Z" fill="#2F2E41"/>
<path d="M45.8326 97.7675C45.6135 97.7673 45.4013 97.6914 45.2319 97.5528C45.0625 97.4142 44.9463 97.2214 44.9031 97.007L42.6263 85.7047C42.2104 83.6339 41.4273 81.654 40.3139 79.8583L33.8895 69.4837C33.8575 69.432 33.8119 69.3902 33.7577 69.3628C33.7035 69.3354 33.6427 69.3235 33.5821 69.3283C33.5215 69.3331 33.4634 69.3546 33.4142 69.3902C33.365 69.4259 33.3267 69.4744 33.3033 69.5304L22.741 94.8604C22.6561 95.0629 22.5035 95.2297 22.3093 95.3326C22.115 95.4354 21.8911 95.4678 21.6755 95.4244L18.8539 94.8501C18.6122 94.8019 18.3989 94.6614 18.2596 94.4584C18.1202 94.2554 18.0658 94.0061 18.108 93.7637L20.4098 80.2216C20.8794 77.4613 21.6794 74.7674 22.7928 72.1977L30.5882 54.2125L42.0922 57.9842L42.8513 66.0259L48.1667 78.8747C48.5341 79.7621 48.7536 80.7034 48.8167 81.6614L49.7987 96.5113C49.814 96.7591 49.7316 97.0031 49.5692 97.1911C49.4068 97.3792 49.1771 97.4964 48.9293 97.5178L45.9107 97.7643C45.8845 97.7664 45.8584 97.7675 45.8326 97.7675Z" fill="#2F2E41"/>
<path d="M24.8464 79.3444L21.1993 75.8886L28.0918 49.3557C28.5291 47.6874 29.349 46.1436 30.4867 44.846C31.6244 43.5485 33.0488 42.5329 34.6472 41.8793L34.7826 41.8243L34.4143 57.9728L24.8464 79.3444Z" fill="#2F2E41"/>
<path d="M36.5292 39.8225C35.2354 38.7046 34.8419 36.6191 35.6347 35.0816C36.4274 33.5442 38.323 32.7165 39.9438 33.2001C41.4704 33.6556 43.2058 32.1363 43.0198 30.5072C42.8338 28.878 40.8038 27.8168 39.4217 28.6262C38.3749 28.2068 37.2291 28.0982 36.122 28.3135C35.0149 28.5287 33.9936 29.0587 33.1811 29.8395C31.5572 31.4276 30.9412 34.0238 31.6702 36.2069C32.3992 38.39 34.4341 40.0427 36.5292 39.8225Z" fill="#2F2E41"/>
<path d="M31.9481 82.3113C31.8842 82.3359 31.8176 82.353 31.7498 82.3624L23.4233 83.5227C23.2219 83.5515 23.0166 83.511 22.8413 83.4078C22.666 83.3047 22.5311 83.145 22.4588 82.9552L15.2916 64.3375C15.2452 64.217 15.2254 64.0879 15.2335 63.959C15.2416 63.8301 15.2774 63.7045 15.3385 63.5907C15.3996 63.4769 15.4846 63.3776 15.5876 63.2995C15.6907 63.2215 15.8094 63.1665 15.9356 63.1384L15.9357 63.1383L23.7659 61.394C23.8263 61.3804 23.8847 61.3591 23.9397 61.3305L31.5557 57.3554C31.6145 57.3246 31.6766 57.3005 31.7408 57.2835L40.1223 55.0529C40.3369 54.9954 40.5653 55.0193 40.7633 55.1201C40.9613 55.2209 41.1148 55.3914 41.1942 55.5987L47.4435 71.8321C47.4984 71.9735 47.5163 72.1266 47.4956 72.2768C47.475 72.4271 47.4163 72.5696 47.3252 72.691L45.164 75.5884C45.0623 75.7247 44.924 75.8294 44.765 75.8903L40.0417 77.7024C40.0079 77.7154 39.975 77.731 39.9436 77.749L32.073 82.2521C32.0329 82.275 31.9912 82.2948 31.9481 82.3113Z" fill="white"/>
<path d="M35.822 57.5348L34.7577 57.8181L31.9372 58.5691L31.9321 58.5702L28.0707 60.5859L26.6376 61.334L26.637 61.3343L24.4847 62.4575L24.4257 62.4708L22.1898 62.9686L21.1092 63.2098L16.7019 64.1915L23.6209 82.1644L28.1626 81.5317L29.2761 81.3762L31.6497 81.0451L31.6772 81.0415L39.3042 76.6777L43.9447 74.8974L46.0634 72.0572L40.0406 56.4122L35.822 57.5348Z" fill="#E6E6E6"/>
<path d="M41.0329 58.9897L18.0882 67.7925L18.4811 68.8132L41.4258 60.0104L41.0329 58.9897Z" fill="white"/>
<path d="M42.3426 62.392L19.3979 71.1948L19.7909 72.2154L42.7355 63.4127L42.3426 62.392Z" fill="white"/>
<path d="M44.9883 69.2646L22.0436 78.0674L22.4366 79.088L45.3813 70.2853L44.9883 69.2646Z" fill="white"/>
<path d="M35.8219 57.5347L42.6911 75.3783L41.6688 75.7706L34.7576 57.8182L35.8219 57.5347Z" fill="white"/>
<path d="M28.0707 60.5859L26.6602 64.5038L26.1711 65.8629L25.0302 69.034L24.7857 69.7119L24.5411 70.393L24.2189 71.2874L21.9066 77.7115L21.3055 76.1498L23.1909 70.9112L23.6174 69.7251L23.6799 69.5519L24.1844 68.1496L24.8209 66.381L25.3099 65.0218L26.637 61.3343L26.6375 61.3341L28.0707 60.5859Z" fill="white"/>
<path opacity="0.1" d="M39.4705 76.614L39.3041 76.6778L31.6772 81.0416L31.6496 81.0451L24.4256 62.4707L24.4847 62.4575L26.637 61.3343L26.6375 61.3341L28.0707 60.5859L31.9322 58.5702L31.9372 58.5691L39.4705 76.614Z" fill="black"/>
<path d="M31.9825 82.4008C31.9117 82.4279 31.8381 82.4468 31.7631 82.4573L23.4366 83.6176C23.2137 83.6494 22.9865 83.6046 22.7926 83.4904C22.5986 83.3763 22.4493 83.1996 22.3692 82.9895L15.2021 64.3719C15.1507 64.2385 15.1288 64.0956 15.1377 63.953C15.1467 63.8104 15.1863 63.6714 15.254 63.5455C15.3216 63.4195 15.4156 63.3096 15.5297 63.2232C15.6437 63.1368 15.775 63.076 15.9147 63.0449L23.745 61.3005C23.7972 61.2887 23.8477 61.2703 23.8952 61.2456L31.5112 57.2705C31.5763 57.2365 31.645 57.2098 31.716 57.1909L40.0976 54.9604C40.3351 54.8967 40.5879 54.9232 40.8069 55.0348C41.026 55.1463 41.1959 55.335 41.2837 55.5643L47.533 71.7978C47.5938 71.9543 47.6136 72.1236 47.5907 72.2899C47.5679 72.4562 47.503 72.6139 47.4022 72.7483L45.241 75.6455C45.1285 75.7964 44.9754 75.9123 44.7994 75.9797L40.0762 77.7918C40.0469 77.8031 40.0185 77.8166 39.9912 77.8321L32.1207 82.3352C32.0764 82.3606 32.0301 82.3825 31.9825 82.4008ZM15.9119 63.4448C15.7604 63.503 15.6383 63.6189 15.5724 63.767C15.5064 63.915 15.5021 64.0832 15.5603 64.2345L22.7274 82.8521C22.7766 82.9813 22.8684 83.0899 22.9877 83.16C23.1069 83.2302 23.2465 83.2577 23.3835 83.2382L31.7101 82.0778C31.7875 82.067 31.8621 82.0415 31.9299 82.0028L39.8005 77.4997C39.8448 77.4744 39.8909 77.4525 39.9385 77.4342L44.6617 75.6221C44.7699 75.5807 44.864 75.5095 44.9332 75.4167L47.0944 72.5195C47.1564 72.4369 47.1963 72.3399 47.2103 72.2377C47.2244 72.1355 47.2122 72.0314 47.1748 71.9352L40.9255 55.7018C40.8715 55.5608 40.7671 55.4448 40.6325 55.3762C40.4978 55.3076 40.3425 55.2913 40.1965 55.3305L31.815 57.5611C31.7714 57.5728 31.7292 57.5892 31.6891 57.6099L24.073 61.5852C23.9958 61.6253 23.9136 61.6553 23.8286 61.6744L15.9984 63.4188C15.9689 63.4253 15.9401 63.434 15.9119 63.4448Z" fill="#E6E6E6"/>
<path d="M22.1898 62.9686L29.276 81.3763L28.1626 81.5316L21.1092 63.2097L22.1898 62.9686Z" fill="white"/>
<path d="M24.2279 70.3987C24.5102 70.3987 24.7391 70.1702 24.7391 69.8884C24.7391 69.6066 24.5102 69.3781 24.2279 69.3781C23.9456 69.3781 23.7167 69.6066 23.7167 69.8884C23.7167 70.1702 23.9456 70.3987 24.2279 70.3987Z" fill="#3F3D56"/>
<path d="M42.3517 70.9426C42.634 70.9426 42.8629 70.7142 42.8629 70.4323C42.8629 70.1505 42.634 69.9221 42.3517 69.9221C42.0694 69.9221 41.8406 70.1505 41.8406 70.4323C41.8406 70.7142 42.0694 70.9426 42.3517 70.9426Z" fill="#0000E6"/>
<path d="M42.5587 61.2158C43.1388 62.7228 42.4407 67.7168 42.1951 69.3199C42.1874 69.3708 42.1663 69.4186 42.134 69.4587C42.1017 69.4988 42.0594 69.5296 42.0113 69.5481C41.9632 69.5665 41.9111 69.5719 41.8602 69.5638C41.8094 69.5556 41.7616 69.5341 41.7217 69.5015C40.464 68.4752 36.5952 65.2332 36.0151 63.7263C35.85 63.2973 35.7711 62.8401 35.783 62.3808C35.7949 61.9214 35.8972 61.4689 36.0843 61.0491C36.2713 60.6292 36.5394 60.2503 36.8732 59.9338C37.2069 59.6174 37.5999 59.3697 38.0295 59.2049C38.4592 59.04 38.9171 58.9613 39.3773 58.9731C39.8374 58.985 40.2907 59.0872 40.7113 59.2739C41.1319 59.4607 41.5115 59.7282 41.8284 60.0614C42.1454 60.3946 42.3935 60.7869 42.5587 61.2158V61.2158Z" fill="#0000E6"/>
<path d="M39.2869 64.3663C40.3354 64.3663 41.1855 63.5178 41.1855 62.471C41.1855 61.4243 40.3354 60.5757 39.2869 60.5757C38.2383 60.5757 37.3883 61.4243 37.3883 62.471C37.3883 63.5178 38.2383 64.3663 39.2869 64.3663Z" fill="white"/>
<path d="M36.8481 58.3814C36.925 58.0999 37.0627 57.8386 37.2516 57.616C37.4406 57.3933 37.6761 57.2148 37.9416 57.0928C38.2072 56.9709 38.4963 56.9086 38.7886 56.9102C39.0808 56.9119 39.3692 56.9775 39.6333 57.1025L43.0226 54.044L45.3868 55.6468L40.5397 59.8989C40.3 60.328 39.911 60.6543 39.4464 60.8162C38.9817 60.978 38.4738 60.9641 38.0187 60.7771C37.5637 60.59 37.1932 60.2428 36.9775 59.8013C36.7617 59.3598 36.7157 58.8546 36.8481 58.3814Z" fill="#FFB8B8"/>
<path d="M42.3092 59.3797L39.6525 55.7803L45.7093 51.9105L41.3682 45.7265C41.0134 45.2212 40.8579 44.6031 40.9314 43.9905C41.0048 43.3779 41.3021 42.8139 41.7663 42.4065C42.2304 41.9991 42.8288 41.7769 43.4468 41.7826C44.0649 41.7883 44.6591 42.0214 45.1156 42.4372L50.5512 47.3881C51.069 47.8596 51.4707 48.4442 51.7251 49.0961C51.9795 49.7481 52.0797 50.4499 52.0179 51.1469C51.956 51.8438 51.7339 52.5171 51.3687 53.1143C51.0035 53.7115 50.5051 54.2165 49.9124 54.5899L42.3092 59.3797Z" fill="#2F2E41"/>
<path d="M21.4942 68.8238C21.7344 68.6575 21.9351 68.4407 22.0822 68.1885C22.2294 67.9364 22.3193 67.6552 22.3458 67.3646C22.3723 67.074 22.3346 66.7811 22.2354 66.5066C22.1363 66.2322 21.978 65.9827 21.7718 65.7759L23.5281 61.5653L21.2252 59.8758L18.8287 65.8567C18.5036 66.2256 18.3254 66.7006 18.3277 67.1919C18.33 67.6831 18.5128 68.1565 18.8413 68.5222C19.1699 68.8879 19.6214 69.1207 20.1104 69.1762C20.5993 69.2318 21.0917 69.1065 21.4942 68.8239V68.8238Z" fill="#FFB8B8"/>
<path d="M22.6808 64.5486L18.5274 63.583L21.6225 54.673C22.1559 53.1357 22.9428 51.6981 23.9507 50.4196L29.0002 44.0095C29.462 43.4231 30.1377 43.0434 30.8794 42.9535C31.6211 42.8636 32.3683 43.0708 32.9572 43.5297C33.5462 43.9887 33.929 44.6619 34.0216 45.402C34.1143 46.1421 33.9094 46.8887 33.4518 47.4783L27.8487 54.6975L22.6808 64.5486Z" fill="#2F2E41"/>
<path d="M73.2971 102H0.191879C0.14099 102 0.0921823 101.98 0.0561984 101.944C0.0202144 101.908 1.90735e-06 101.859 1.90735e-06 101.808C1.90735e-06 101.758 0.0202144 101.709 0.0561984 101.673C0.0921823 101.637 0.14099 101.617 0.191879 101.617H73.2971C73.348 101.617 73.3968 101.637 73.4328 101.673C73.4688 101.709 73.489 101.758 73.489 101.808C73.489 101.859 73.4688 101.908 73.4328 101.944C73.3968 101.98 73.348 102 73.2971 102Z" fill="#CCCCCC"/>
<path d="M101.654 101.904H99.9272V0.861972C99.9272 0.633363 100.018 0.414118 100.18 0.252467C100.342 0.0908154 100.562 0 100.791 0C101.02 0 101.239 0.0908154 101.401 0.252467C101.563 0.414118 101.654 0.633363 101.654 0.861972V101.904Z" fill="#E6E6E6"/>
<path d="M114.167 102H87.3041C87.2532 102 87.2044 101.98 87.1684 101.944C87.1325 101.908 87.1122 101.859 87.1122 101.808C87.1122 101.758 87.1325 101.709 87.1684 101.673C87.2044 101.637 87.2532 101.617 87.3041 101.617H114.167C114.218 101.617 114.267 101.637 114.303 101.673C114.339 101.709 114.359 101.758 114.359 101.808C114.359 101.859 114.339 101.908 114.303 101.944C114.267 101.98 114.218 102 114.167 102Z" fill="#CCCCCC"/>
<path d="M113.637 13.2169H88.5105C88.2816 13.2166 88.0621 13.1257 87.9003 12.9641C87.7384 12.8026 87.6473 12.5835 87.6471 12.3549V5.07605C87.6473 4.84752 87.7384 4.62843 87.9003 4.46683C88.0621 4.30524 88.2816 4.21434 88.5105 4.21408H113.639C113.786 4.21418 113.931 4.25182 114.059 4.32342L120.557 7.94349C120.691 8.0181 120.803 8.12698 120.881 8.25894C120.958 8.39089 121 8.54115 121 8.69427C121 8.84738 120.96 8.99782 120.883 9.13012C120.805 9.26241 120.694 9.37179 120.561 9.44699L114.061 13.1058C113.931 13.1785 113.785 13.2168 113.637 13.2169Z" fill="#0000E6"/>
<path d="M111.344 28.9239H86.2176C86.0691 28.9238 85.923 28.8856 85.7936 28.8128L79.2938 25.154C79.1602 25.0788 79.0491 24.9694 78.9719 24.8372C78.8946 24.7049 78.8541 24.5544 78.8545 24.4013C78.8548 24.2482 78.896 24.0979 78.9738 23.966C79.0516 23.834 79.1632 23.7251 79.2971 23.6505L85.795 20.0304C85.9237 19.9588 86.0685 19.9212 86.2158 19.9211H111.344C111.573 19.9214 111.792 20.0123 111.954 20.1739C112.116 20.3355 112.207 20.5546 112.207 20.7831V28.062C112.207 28.2905 112.116 28.5096 111.954 28.6712C111.792 28.8328 111.573 28.9237 111.344 28.9239Z" fill="#E6E6E6"/>
<path d="M111.44 44.3437H86.3136C86.165 44.3436 86.019 44.3053 85.8895 44.2326L79.3898 40.5738C79.2561 40.4986 79.145 40.3892 79.0678 40.2569C78.9906 40.1246 78.9501 39.9742 78.9504 39.821C78.9507 39.6679 78.9919 39.5177 79.0697 39.3857C79.1475 39.2538 79.2591 39.1449 79.3931 39.0703L85.891 35.4502C86.0196 35.3786 86.1644 35.341 86.3117 35.3409H111.44C111.669 35.3411 111.888 35.432 112.05 35.5936C112.212 35.7552 112.303 35.9743 112.303 36.2028V43.4817C112.303 43.7102 112.212 43.9293 112.05 44.0909C111.888 44.2525 111.669 44.3434 111.44 44.3437Z" fill="#E6E6E6"/>
</svg>
