<svg width="31" height="30" viewBox="0 0 31 30" fill="none" xmlns="http://www.w3.org/2000/svg">
<path d="M27.5367 25.0342L19.6747 17.4258C20.8947 15.8994 21.5547 14.0332 21.5547 12.0703C21.5547 9.7207 20.6071 7.51758 18.8937 5.85645C17.1802 4.19531 14.8976 3.28125 12.4727 3.28125C10.0478 3.28125 7.76514 4.19824 6.05166 5.85645C4.33516 7.51465 3.39062 9.7207 3.39062 12.0703C3.39062 14.417 4.33818 16.626 6.05166 18.2842C7.76514 19.9453 10.0447 20.8594 12.4727 20.8594C14.501 20.8594 16.4264 20.2207 18.0036 19.043L25.8656 26.6484C25.8887 26.6708 25.916 26.6885 25.9462 26.7005C25.9763 26.7126 26.0086 26.7189 26.0412 26.7189C26.0738 26.7189 26.1061 26.7126 26.1362 26.7005C26.1664 26.6885 26.1937 26.6708 26.2168 26.6484L27.5367 25.374C27.5598 25.3517 27.5781 25.3252 27.5906 25.2961C27.6031 25.2669 27.6095 25.2357 27.6095 25.2041C27.6095 25.1725 27.6031 25.1413 27.5906 25.1121C27.5781 25.083 27.5598 25.0565 27.5367 25.0342ZM17.268 16.7109C15.9844 17.9502 14.283 18.6328 12.4727 18.6328C10.6623 18.6328 8.96094 17.9502 7.67734 16.7109C6.39678 15.4688 5.69141 13.8223 5.69141 12.0703C5.69141 10.3184 6.39678 8.66895 7.67734 7.42969C8.96094 6.19043 10.6623 5.50781 12.4727 5.50781C14.283 5.50781 15.9874 6.1875 17.268 7.42969C18.5485 8.67188 19.2539 10.3184 19.2539 12.0703C19.2539 13.8223 18.5485 15.4717 17.268 16.7109Z" fill="black"/>
</svg>
