<svg width="24" height="24" viewBox="0 0 24 24" fill="none" xmlns="http://www.w3.org/2000/svg">
<g clip-path="url(#clip0)">
<path d="M18 2H20C20.2652 2 20.5196 2.10536 20.7071 2.29289C20.8946 2.48043 21 2.73478 21 3V15C21 15.2652 20.8946 15.5196 20.7071 15.7071C20.5196 15.8946 20.2652 16 20 16H4C3.73478 16 3.48043 15.8946 3.29289 15.7071C3.10536 15.5196 3 15.2652 3 15V3C3 2.73478 3.10536 2.48043 3.29289 2.29289C3.48043 2.10536 3.73478 2 4 2H6V1C6 -0.591299 6.63214 -2.11742 7.75736 -3.24264C8.88258 -4.36786 10.4087 -5 12 -5C13.5913 -5 15.1174 -4.36786 16.2426 -3.24264C17.3679 -2.11742 18 -0.591299 18 1V2ZM16 2V1C16 -0.0608659 15.5786 -1.07828 14.8284 -1.82843C14.0783 -2.57857 13.0609 -3 12 -3C10.9391 -3 9.92172 -2.57857 9.17157 -1.82843C8.42143 -1.07828 8 -0.0608659 8 1V2H16ZM11 8V10H13V8H11ZM7 8V10H9V8H7ZM15 8V10H17V8H15Z" fill="black"/>
</g>
<defs>
<clipPath id="clip0">
<rect width="24" height="24" fill="white"/>
</clipPath>
</defs>
</svg>
