<svg width="189" height="159" viewBox="0 0 189 159" fill="none" xmlns="http://www.w3.org/2000/svg">
<path d="M28.0264 152.307L31.693 153.329L37.3923 139.724L31.9808 138.217L28.0264 152.307Z" fill="#FFB8B8"/>
<path d="M37.8129 158.691L26.2887 155.481L27.5335 151.045L35.0508 153.139C36.1135 153.435 37.0147 154.139 37.556 155.097C38.0974 156.055 38.2346 157.188 37.9375 158.247L37.8129 158.691Z" fill="#2F2E41"/>
<path d="M71.7656 155.168L75.5731 155.168L77.3837 140.537L71.7644 140.537L71.7656 155.168Z" fill="#FFB8B8"/>
<path d="M82.9163 158.689L70.9502 158.691L70.9498 154.085L78.7553 154.084C79.3017 154.084 79.8427 154.191 80.3475 154.399C80.8523 154.607 81.311 154.913 81.6974 155.298C82.0838 155.682 82.3903 156.139 82.5994 156.642C82.8085 157.145 82.9162 157.684 82.9162 158.228L82.9163 158.689V158.689Z" fill="#2F2E41"/>
<path d="M43.4725 94.4257L34.709 115.814L70.4934 123.823L70.9498 111.857L54.7008 94.6141L43.4725 94.4257Z" fill="#B3B3B3"/>
<path d="M62.8878 61.1068C66.8518 58.948 68.3086 53.9964 66.1417 50.0472C63.9748 46.098 59.0047 44.6466 55.0407 46.8054C51.0767 48.9643 49.6199 53.9158 51.7868 57.865C53.9537 61.8142 58.9238 63.2656 62.8878 61.1068Z" fill="#FFB8B8"/>
<path d="M64.809 93.2422L48.6116 86.6364L47.1694 77.1629C46.7447 74.3938 47.4079 71.5681 49.021 69.2738C50.6341 66.9794 53.073 65.3929 55.8303 64.8442L57.9727 64.4156C59.7327 64.0645 61.5521 64.1468 63.273 64.6553C64.9938 65.1638 66.564 66.0831 67.8473 67.3334C69.1043 68.53 70.0442 70.0181 70.5832 71.6647C71.1223 73.3114 71.2436 75.0655 70.9364 76.7703C70.6944 78.231 70.0997 79.6113 69.2036 80.7923C64.1152 87.4216 64.7684 92.9324 64.7756 92.9874L64.809 93.2422Z" fill="#0000E6"/>
<path d="M71.4043 117.948L63.2868 105.086L65.8435 81.6904L62.3117 64.1926L62.4994 64.1973C64.5537 64.2478 66.5097 65.0836 67.9624 66.5315C69.4151 67.9794 70.2532 69.9285 70.303 71.9751L73.7388 89.1214L71.4043 117.948Z" fill="#2F2E41"/>
<path d="M71.5897 152.402C71.2476 152.402 70.9161 152.284 70.6515 152.068C70.3868 151.852 70.2054 151.551 70.1379 151.217L66.5816 133.598C65.932 130.371 64.7088 127.284 62.9696 124.485L52.9349 108.313C52.8849 108.232 52.8137 108.167 52.729 108.124C52.6442 108.082 52.5493 108.063 52.4547 108.071C52.36 108.078 52.2693 108.112 52.1925 108.167C52.1156 108.223 52.0557 108.298 52.0192 108.386L35.5211 147.871C35.3885 148.186 35.1502 148.446 34.8467 148.607C34.5433 148.767 34.1935 148.818 33.8568 148.75L29.4495 147.855C29.0719 147.78 28.7388 147.56 28.5211 147.244C28.3034 146.928 28.2185 146.539 28.2845 146.161L31.8798 125.051C32.6132 120.749 33.8629 116.549 35.6019 112.544L47.7782 84.5077L65.7473 90.3871L66.933 102.923L75.2356 122.952C75.8094 124.335 76.1524 125.802 76.2509 127.296L77.7848 150.444C77.8087 150.83 77.68 151.211 77.4263 151.504C77.1726 151.797 76.8139 151.98 76.4268 152.013L71.7117 152.397C71.6709 152.401 71.6301 152.402 71.5897 152.402Z" fill="#2F2E41"/>
<path d="M38.8097 123.684L33.113 118.297L43.879 76.9368C44.562 74.3363 45.8426 71.9297 47.6197 69.9071C49.3968 67.8845 51.6216 66.3012 54.1184 65.2825L54.3298 65.1968L53.7545 90.3694L38.8097 123.684Z" fill="#2F2E41"/>
<path d="M57.058 62.0763C55.0372 60.3336 54.4225 57.0827 55.6608 54.6861C56.8991 52.2894 59.8599 50.9992 62.3916 51.7531C64.7761 52.4631 67.4867 50.0948 67.1962 47.5553C66.9057 45.0158 63.7349 43.3615 61.576 44.6231C59.941 43.9694 58.1512 43.8001 56.422 44.1357C54.6927 44.4712 53.0975 45.2973 51.8283 46.5146C49.2918 48.9901 48.3296 53.0371 49.4683 56.4401C50.607 59.8432 53.7855 62.4195 57.058 62.0763Z" fill="#2F2E41"/>
<path d="M49.9024 128.309C49.8025 128.347 49.6986 128.374 49.5927 128.388L36.5868 130.197C36.2722 130.242 35.9516 130.179 35.6778 130.018C35.404 129.857 35.1932 129.608 35.0802 129.312L23.8853 100.291C23.8128 100.103 23.7818 99.9017 23.7944 99.7008C23.8071 99.4999 23.863 99.3041 23.9585 99.1267C24.054 98.9493 24.1867 98.7944 24.3476 98.6728C24.5086 98.5511 24.694 98.4654 24.8912 98.4216L24.8912 98.4215L37.1219 95.7024C37.2163 95.6812 37.3076 95.648 37.3934 95.6034L49.2894 89.407C49.3813 89.359 49.4783 89.3214 49.5786 89.2949L62.6703 85.8178C63.0056 85.7281 63.3623 85.7654 63.6716 85.9225C63.9808 86.0797 64.2206 86.3455 64.3446 86.6685L74.1059 111.974C74.1916 112.194 74.2197 112.433 74.1874 112.667C74.1551 112.901 74.0635 113.123 73.9213 113.312L70.5454 117.829C70.3866 118.041 70.1705 118.205 69.9222 118.3L62.5445 121.124C62.4916 121.145 62.4404 121.169 62.3912 121.197L50.0974 128.217C50.0349 128.252 49.9697 128.283 49.9024 128.309V128.309Z" fill="white"/>
<path d="M55.9534 89.6865L54.2909 90.1283L49.8853 91.2989L49.8775 91.3007L43.8459 94.4427L41.6075 95.6089L41.6065 95.6093L38.2447 97.3603L38.1525 97.381L34.6602 98.1569L32.9723 98.5329L26.0882 100.063L36.8954 128.08L43.9894 127.094L45.7289 126.851L49.4363 126.335L49.4793 126.329L61.3925 119.527L68.6409 116.752L71.9502 112.324L62.5427 87.9367L55.9534 89.6865Z" fill="#E6E6E6"/>
<path d="M64.0927 91.9546L28.2534 105.677L28.8672 107.268L64.7064 93.5457L64.0927 91.9546Z" fill="white"/>
<path d="M66.1385 97.2582L30.2993 110.98L30.913 112.571L66.7522 98.8492L66.1385 97.2582Z" fill="white"/>
<path d="M70.271 107.971L34.4318 121.693L35.0456 123.284L70.8848 109.562L70.271 107.971Z" fill="white"/>
<path d="M55.9533 89.6864L66.6829 117.501L65.086 118.113L54.2908 90.1284L55.9533 89.6864Z" fill="white"/>
<path d="M43.8459 94.4427L41.6428 100.55L40.8788 102.669L39.0967 107.612L38.7149 108.669L38.3328 109.73L37.8296 111.124L34.2178 121.139L33.2788 118.704L36.2237 110.538L36.89 108.689L36.9877 108.419L37.7756 106.233L38.7698 103.476L39.5337 101.357L41.6065 95.6093L41.6074 95.609L43.8459 94.4427Z" fill="white"/>
<path opacity="0.1" d="M61.6522 119.428L61.3924 119.527L49.4793 126.33L49.4361 126.335L38.1524 97.3809L38.2447 97.3603L41.6065 95.6093L41.6074 95.609L43.8459 94.4427L49.8776 91.3006L49.8854 91.2989L61.6522 119.428Z" fill="black"/>
<path d="M49.9561 128.448C49.8456 128.491 49.7306 128.52 49.6135 128.536L36.6075 130.345C36.2593 130.395 35.9046 130.325 35.6016 130.147C35.2986 129.969 35.0654 129.694 34.9404 129.366L23.7454 100.344C23.6652 100.136 23.6309 99.9138 23.6449 99.6915C23.6589 99.4692 23.7208 99.2525 23.8265 99.0561C23.9321 98.8598 24.079 98.6885 24.2571 98.5539C24.4352 98.4192 24.6403 98.3244 24.8586 98.2758L37.0892 95.5567C37.1708 95.5383 37.2497 95.5095 37.324 95.471L49.22 89.2746C49.3217 89.2215 49.429 89.1799 49.5399 89.1505L62.6318 85.6735C63.0028 85.5743 63.3976 85.6156 63.7398 85.7895C64.082 85.9634 64.3473 86.2575 64.4845 86.615L74.2458 111.92C74.3407 112.164 74.3717 112.428 74.336 112.687C74.3002 112.946 74.1989 113.192 74.0415 113.402L70.6656 117.918C70.4899 118.153 70.2508 118.334 69.976 118.439L62.5983 121.264C62.5525 121.281 62.5082 121.302 62.4657 121.327L50.172 128.346C50.1027 128.386 50.0305 128.42 49.9561 128.448V128.448ZM24.8542 98.8993C24.6176 98.99 24.4268 99.1706 24.3238 99.4015C24.2208 99.6323 24.214 99.8944 24.3049 100.13L35.4999 129.152C35.5767 129.353 35.7201 129.522 35.9063 129.632C36.0926 129.741 36.3107 129.784 36.5247 129.754L49.5306 127.945C49.6515 127.928 49.768 127.888 49.874 127.828L62.1678 120.808C62.2369 120.769 62.3089 120.735 62.3832 120.706L69.7609 117.882C69.9298 117.817 70.0768 117.706 70.1849 117.561L73.5607 113.045C73.6575 112.916 73.7198 112.765 73.7417 112.606C73.7637 112.447 73.7446 112.284 73.6863 112.134L63.925 86.8292C63.8407 86.6095 63.6776 86.4287 63.4672 86.3218C63.2569 86.2149 63.0143 86.1894 62.7862 86.2504L49.6944 89.7275C49.6264 89.7459 49.5605 89.7714 49.4979 89.8037L37.6017 96.0004C37.481 96.0629 37.3527 96.1097 37.2199 96.1395L24.9892 98.8587C24.9432 98.8689 24.8981 98.8825 24.8542 98.8993Z" fill="#E6E6E6"/>
<path d="M34.6601 98.1569L45.7287 126.851L43.9895 127.093L32.9722 98.5328L34.6601 98.1569Z" fill="white"/>
<path d="M37.8436 109.739C38.2845 109.739 38.642 109.383 38.642 108.944C38.642 108.504 38.2845 108.148 37.8436 108.148C37.4026 108.148 37.0452 108.504 37.0452 108.944C37.0452 109.383 37.4026 109.739 37.8436 109.739Z" fill="#3F3D56"/>
<path d="M66.1527 110.587C66.5936 110.587 66.9511 110.231 66.9511 109.792C66.9511 109.352 66.5936 108.996 66.1527 108.996C65.7117 108.996 65.3543 109.352 65.3543 109.792C65.3543 110.231 65.7117 110.587 66.1527 110.587Z" fill="#0000E6"/>
<path d="M66.4759 95.4246C67.3821 97.7738 66.2916 105.559 65.9081 108.058C65.896 108.137 65.8631 108.211 65.8126 108.274C65.7622 108.336 65.6961 108.384 65.621 108.413C65.5458 108.442 65.4644 108.45 65.385 108.438C65.3055 108.425 65.2309 108.391 65.1686 108.341C63.204 106.741 57.1612 101.687 56.255 99.338C55.9971 98.6694 55.8739 97.9567 55.8924 97.2406C55.911 96.5246 56.0709 95.8192 56.3631 95.1647C56.6552 94.5102 57.0739 93.9195 57.5953 93.4262C58.1166 92.933 58.7304 92.5469 59.4015 92.2899C60.0726 92.033 60.7879 91.9102 61.5067 91.9287C62.2254 91.9472 62.9334 92.1065 63.5903 92.3976C64.2473 92.6887 64.8402 93.1058 65.3353 93.6252C65.8304 94.1446 66.218 94.756 66.4759 95.4246V95.4246Z" fill="#0000E6"/>
<path d="M61.3655 100.336C63.0033 100.336 64.331 99.013 64.331 97.3813C64.331 95.7496 63.0033 94.4268 61.3655 94.4268C59.7276 94.4268 58.3999 95.7496 58.3999 97.3813C58.3999 99.013 59.7276 100.336 61.3655 100.336Z" fill="white"/>
<path d="M57.5562 91.0064C57.6762 90.5675 57.8913 90.1602 58.1864 89.8132C58.4815 89.4661 58.8494 89.1877 59.2642 88.9977C59.679 88.8076 60.1306 88.7104 60.5871 88.713C61.0436 88.7156 61.4941 88.8179 61.9066 89.0127L67.2007 84.245L70.8935 86.7435L63.3224 93.3719C62.948 94.0407 62.3403 94.5494 61.6146 94.8017C60.8888 95.054 60.0954 95.0323 59.3847 94.7407C58.6739 94.4492 58.0952 93.908 57.7582 93.2197C57.4212 92.5314 57.3493 91.7439 57.5562 91.0064V91.0064Z" fill="#FFB8B8"/>
<path d="M66.0863 92.5625L61.9365 86.9517L71.3972 80.9193L64.6164 71.2796C64.0623 70.4919 63.8194 69.5284 63.9341 68.5734C64.0489 67.6185 64.5132 66.7393 65.2382 66.1042C65.9632 65.4691 66.8979 65.1229 67.8632 65.1317C68.8286 65.1406 69.7567 65.5039 70.4698 66.1522L78.9602 73.8696C79.7689 74.6047 80.3964 75.5159 80.7938 76.5322C81.1911 77.5485 81.3476 78.6425 81.251 79.7289C81.1545 80.8154 80.8074 81.8649 80.237 82.7958C79.6666 83.7267 78.8881 84.5139 77.9623 85.096L66.0863 92.5625Z" fill="#2F2E41"/>
<path d="M33.5736 107.284C33.9488 107.025 34.2623 106.687 34.4921 106.294C34.7219 105.901 34.8624 105.462 34.9038 105.009C34.9451 104.556 34.8863 104.1 34.7314 103.672C34.5765 103.244 34.3293 102.855 34.0072 102.533L36.7504 95.9695L33.1535 93.3358L29.4102 102.659C28.9024 103.234 28.6239 103.974 28.6275 104.74C28.6312 105.506 28.9166 106.244 29.4298 106.814C29.943 107.384 30.6483 107.747 31.412 107.834C32.1758 107.92 32.9449 107.725 33.5736 107.284V107.284Z" fill="#FFB8B8"/>
<path d="M35.4271 100.62L28.9395 99.1146L33.7741 85.2256C34.6072 82.8291 35.8363 80.5881 37.4106 78.5952L45.2978 68.603C46.0191 67.689 47.0746 67.0971 48.2331 66.9569C49.3917 66.8167 50.5587 67.1397 51.4787 67.8551C52.3986 68.5706 52.9965 69.6201 53.1412 70.7737C53.286 71.9274 52.9659 73.0913 52.2511 74.0103L43.4992 85.2638L35.4271 100.62Z" fill="#2F2E41"/>
<path d="M114.489 159H0.299711C0.220223 159 0.143986 158.969 0.0877798 158.913C0.0315735 158.857 1.90735e-06 158.781 1.90735e-06 158.701C1.90735e-06 158.622 0.0315735 158.546 0.0877798 158.49C0.143986 158.434 0.220223 158.403 0.299711 158.403H114.489C114.568 158.403 114.645 158.434 114.701 158.49C114.757 158.546 114.789 158.622 114.789 158.701C114.789 158.781 114.757 158.857 114.701 158.913C114.645 158.969 114.568 159 114.489 159Z" fill="#CCCCCC"/>
<path d="M158.782 158.851H156.085V1.34366C156.085 0.987301 156.227 0.645536 156.48 0.393551C156.733 0.141565 157.076 0 157.433 0C157.791 0 158.134 0.141565 158.387 0.393551C158.64 0.645536 158.782 0.987301 158.782 1.34366V158.851Z" fill="#E6E6E6"/>
<path d="M178.327 159H136.368C136.288 159 136.212 158.969 136.156 158.913C136.099 158.857 136.068 158.781 136.068 158.701C136.068 158.622 136.099 158.546 136.156 158.49C136.212 158.434 136.288 158.403 136.368 158.403H178.327C178.406 158.403 178.483 158.434 178.539 158.49C178.595 158.546 178.627 158.622 178.627 158.701C178.627 158.781 178.595 158.857 178.539 158.913C178.483 158.969 178.406 159 178.327 159Z" fill="#CCCCCC"/>
<path d="M177.499 20.6028H138.252C137.894 20.6024 137.552 20.4607 137.299 20.2088C137.046 19.9569 136.904 19.6154 136.903 19.2591V7.91266C136.904 7.55642 137.046 7.21489 137.299 6.96299C137.552 6.71109 137.894 6.5694 138.252 6.569H177.502C177.732 6.56916 177.958 6.62782 178.159 6.73944L188.309 12.3825C188.518 12.4988 188.692 12.6685 188.814 12.8742C188.935 13.0799 188.999 13.3141 189 13.5528C189.001 13.7915 188.937 14.026 188.817 14.2322C188.696 14.4385 188.522 14.609 188.314 14.7262L178.161 20.4296C177.959 20.543 177.731 20.6026 177.499 20.6028V20.6028Z" fill="#0000E6"/>
<path d="M173.917 45.0873H134.67C134.438 45.0872 134.21 45.0275 134.008 44.9141L123.856 39.2107C123.647 39.0935 123.473 38.923 123.353 38.7167C123.232 38.5105 123.169 38.276 123.169 38.0373C123.17 37.7986 123.234 37.5644 123.356 37.3587C123.477 37.153 123.652 36.9833 123.861 36.867L134.01 31.2239C134.211 31.1123 134.438 31.0537 134.668 31.0535H173.917C174.275 31.0539 174.618 31.1956 174.871 31.4475C175.123 31.6994 175.266 32.0409 175.266 32.3972V43.7436C175.266 44.0999 175.123 44.4414 174.871 44.6933C174.618 44.9452 174.275 45.0869 173.917 45.0873Z" fill="#E6E6E6"/>
<path d="M174.067 69.1239H134.82C134.588 69.1238 134.36 69.0641 134.158 68.9507L124.005 63.2473C123.797 63.1301 123.623 62.9596 123.503 62.7534C123.382 62.5472 123.319 62.3126 123.319 62.074C123.32 61.8353 123.384 61.601 123.506 61.3954C123.627 61.1897 123.801 61.0199 124.011 60.9036L134.16 55.2606C134.361 55.149 134.587 55.0903 134.817 55.0901H174.067C174.425 55.0906 174.768 55.2322 175.02 55.4841C175.273 55.736 175.416 56.0776 175.416 56.4338V67.7803C175.416 68.1365 175.273 68.478 175.02 68.7299C174.768 68.9818 174.425 69.1235 174.067 69.1239V69.1239Z" fill="#E6E6E6"/>
</svg>
