<svg width="118" height="110" viewBox="0 0 118 110" fill="none" xmlns="http://www.w3.org/2000/svg">
<g clip-path="url(#clip0)">
<path d="M89.9171 26.1402H89.3116V9.58293C89.3116 7.04138 88.3001 4.60392 86.4995 2.80677C84.699 1.00963 82.257 0 79.7106 0H44.5665C42.0201 0 39.5781 1.00963 37.7775 2.80677C35.977 4.60392 34.9655 7.04138 34.9655 9.58293V100.417C34.9655 102.959 35.977 105.396 37.7775 107.193C39.5781 108.99 42.0201 110 44.5665 110H79.7113C82.2576 110 84.6997 108.99 86.5002 107.193C88.3007 105.396 89.3123 102.959 89.3123 100.417V37.9258H89.9171V26.1402Z" fill="#3F3D56"/>
<path d="M87.3548 8.94172V101.059C87.3545 102.986 86.5875 104.834 85.2226 106.196C83.8576 107.559 82.0063 108.325 80.0757 108.326H44.2088C42.2774 108.326 40.425 107.56 39.0591 106.197C37.6932 104.834 36.9256 102.986 36.9252 101.058V8.94172C36.9258 7.0141 37.6935 5.16564 39.0594 3.8029C40.4253 2.44016 42.2775 1.67472 44.2088 1.67493H48.5595C48.3459 2.19931 48.2646 2.76803 48.3228 3.33111C48.381 3.89419 48.5768 4.43439 48.8931 4.90423C49.2094 5.37406 49.6366 5.75915 50.1369 6.02565C50.6373 6.29214 51.1955 6.43188 51.7627 6.43259H72.2107C72.7778 6.43182 73.3361 6.29201 73.8365 6.02543C74.3368 5.75886 74.7639 5.37369 75.0801 4.90378C75.3964 4.43387 75.5922 3.89361 75.6502 3.33049C75.7083 2.76738 75.6269 2.19864 75.4132 1.67429H80.0736C82.0042 1.67463 83.8556 2.44014 85.2208 3.80254C86.5861 5.16494 87.3534 7.0127 87.3541 8.93961L87.3548 8.94172Z" fill="#E6E6E6"/>
<path d="M83.5332 103.517H40.7468C40.3816 103.517 40.0314 103.372 39.7731 103.114C39.5149 102.856 39.3696 102.507 39.3692 102.142V12.363C39.3696 11.9984 39.5149 11.6489 39.7731 11.3912C40.0314 11.1334 40.3816 10.9884 40.7468 10.988H83.5332C83.8984 10.9884 84.2486 11.1334 84.5068 11.3912C84.7651 11.6489 84.9104 11.9984 84.9108 12.363V102.142C84.9104 102.507 84.7651 102.856 84.5068 103.114C84.2486 103.372 83.8984 103.517 83.5332 103.517Z" fill="white"/>
<path d="M61.9779 41.2996C68.4884 41.2996 73.7662 36.0317 73.7662 29.5335C73.7662 23.0352 68.4884 17.7674 61.9779 17.7674C55.4674 17.7674 50.1896 23.0352 50.1896 29.5335C50.1896 36.0317 55.4674 41.2996 61.9779 41.2996Z" fill="#E6E6E6"/>
<path d="M61.8159 39.7067C67.445 39.7067 72.0083 35.152 72.0083 29.5335C72.0083 23.915 67.445 19.3603 61.8159 19.3603C56.1868 19.3603 51.6235 23.915 51.6235 29.5335C51.6235 35.152 56.1868 39.7067 61.8159 39.7067Z" fill="white"/>
<path d="M62.0427 23.7633C60.8934 23.7633 59.7699 24.1035 58.8142 24.7408C57.8586 25.3782 57.1138 26.284 56.6739 27.3439C56.2341 28.4037 56.119 29.57 56.3432 30.6951C56.5675 31.8202 57.1209 32.8537 57.9336 33.6649C58.7463 34.4761 59.7818 35.0285 60.909 35.2523C62.0363 35.4761 63.2047 35.3612 64.2666 34.9222C65.3284 34.4832 66.236 33.7398 66.8746 32.786C67.5131 31.8321 67.8539 30.7107 67.8539 29.5635C67.8539 28.0252 67.2417 26.5499 66.1519 25.4622C65.0621 24.3744 63.584 23.7633 62.0427 23.7633ZM62.0427 25.5034C62.3876 25.5034 62.7246 25.6055 63.0113 25.7967C63.298 25.9879 63.5215 26.2596 63.6534 26.5776C63.7854 26.8956 63.8199 27.2454 63.7526 27.583C63.6854 27.9205 63.5193 28.2306 63.2755 28.4739C63.0317 28.7173 62.721 28.883 62.3829 28.9502C62.0447 29.0173 61.6941 28.9829 61.3756 28.8511C61.057 28.7194 60.7847 28.4964 60.5932 28.2103C60.4016 27.9241 60.2994 27.5877 60.2994 27.2435C60.2994 27.015 60.3445 26.7887 60.4321 26.5776C60.5197 26.3665 60.6481 26.1746 60.81 26.0131C60.9719 25.8515 61.1641 25.7233 61.3756 25.6359C61.5871 25.5484 61.8138 25.5034 62.0427 25.5034ZM62.0427 33.8802C61.354 33.8771 60.6765 33.7063 60.0689 33.3827C59.4613 33.059 58.942 32.5923 58.556 32.023C58.5839 30.863 60.8804 30.2243 62.0427 30.2243C63.2051 30.2243 65.5015 30.863 65.5295 32.023C65.1431 32.592 64.6237 33.0584 64.0162 33.3821C63.4087 33.7058 62.7314 33.8769 62.0427 33.8807V33.8802Z" fill="#0000E6"/>
<path d="M71.7067 45.2535H51.3121V46.7835H71.7067V45.2535Z" fill="#E6E6E6"/>
<path d="M74.25 49.2292H48.5834V50.7592H74.25V49.2292Z" fill="#E6E6E6"/>
<path d="M80.2184 60.6492H44.0616V96.7379H80.2184V60.6492Z" fill="#E6E6E6"/>
<path d="M79.2635 61.4127H44.6365V95.9745H79.2635V61.4127Z" fill="white"/>
<path d="M65.2466 64.7489H51.7675V65.7601H65.2466V64.7489Z" fill="#E6E6E6"/>
<path d="M72.582 67.7176H51.7675V68.7288H72.582V67.7176Z" fill="#0000E6"/>
<path d="M68.9473 70.5448H51.9839V71.556H68.9473V70.5448Z" fill="#E6E6E6"/>
<path d="M61.6705 73.6468H51.7675V74.658H61.6705V73.6468Z" fill="#E6E6E6"/>
<path d="M66.7136 76.6768H51.7675V77.688H66.7136V76.6768Z" fill="#0000E6"/>
<path d="M65.2466 79.7257H51.7675V80.7369H65.2466V79.7257Z" fill="#E6E6E6"/>
<path d="M72.582 82.6943H51.7675V83.7055H72.582V82.6943Z" fill="#0000E6"/>
<path d="M68.9473 85.5214H51.9839V86.5326H68.9473V85.5214Z" fill="#E6E6E6"/>
<path d="M61.6705 88.6236H51.7675V89.6348H61.6705V88.6236Z" fill="#E6E6E6"/>
<path d="M66.7136 91.6536H51.7675V92.6648H66.7136V91.6536Z" fill="#E6E6E6"/>
<path d="M112.277 78.46C112.18 78.6284 112.052 78.7761 111.898 78.8948C111.744 79.0135 111.569 79.1009 111.381 79.1519C111.194 79.2029 110.998 79.2165 110.805 79.192C110.612 79.1675 110.426 79.1053 110.258 79.009C110.089 78.9128 109.941 78.7843 109.822 78.6309C109.703 78.4775 109.616 78.3023 109.565 78.1151C109.513 77.928 109.5 77.7327 109.524 77.5403C109.549 77.3479 109.611 77.1622 109.708 76.9938C109.711 76.9881 109.714 76.9823 109.718 76.9766C109.759 76.9074 109.806 76.8414 109.857 76.7793L108.612 67.9243L108.575 67.659L108.322 65.8521L108.285 65.5916L108.423 65.5981L110.834 65.7081L111.481 65.7372L111.562 67.3856L112.021 76.6531C112.26 76.8819 112.416 77.1845 112.462 77.5123C112.509 77.84 112.443 78.1738 112.277 78.46Z" fill="#FFB8B8"/>
<path d="M108.582 67.7392L111.645 67.4589C111.803 67.4438 111.95 67.3668 112.052 67.2444C112.154 67.1221 112.204 66.9644 112.19 66.8058L111.622 60.4498C111.595 60.1467 111.509 59.8518 111.367 59.5821C111.226 59.3124 111.033 59.0732 110.799 58.8779C110.565 58.6827 110.295 58.5354 110.004 58.4444C109.713 58.3534 109.407 58.3205 109.103 58.3476C108.8 58.3747 108.504 58.4612 108.234 58.6022C107.964 58.7432 107.724 58.9359 107.529 59.1694C107.333 59.4029 107.185 59.6725 107.094 59.9629C107.003 60.2533 106.97 60.5588 106.997 60.8619C107.001 60.9057 107.006 60.9493 107.013 60.9928L107.931 67.2272C107.952 67.3701 108.024 67.5006 108.133 67.595C108.243 67.6895 108.382 67.7415 108.527 67.7418C108.545 67.7421 108.564 67.7412 108.582 67.7392Z" fill="#0000E6"/>
<path d="M110.903 62.6043C111.213 61.7286 111.227 60.7759 110.944 59.8913C110.661 59.0068 110.096 58.2389 109.335 57.7048C108.18 56.9162 106.6 56.6331 104.898 58.6552C101.495 62.6993 100.603 67.1478 100.603 67.1478L107.572 68.2801C107.572 68.2801 109.942 65.3886 110.903 62.6043Z" fill="#0000E6"/>
<path d="M99.6319 108.158H97.6449L96.6997 100.509H99.6322L99.6319 108.158Z" fill="#FFB8B8"/>
<path d="M93.8134 110H100.058V107.591H96.2262C95.5863 107.591 94.9726 107.845 94.5201 108.297C94.0676 108.748 93.8134 109.361 93.8134 110Z" fill="#2F2E41"/>
<path d="M115.968 106.428L114.081 107.051L110.778 100.084L113.562 99.1653L115.968 106.428Z" fill="#FFB8B8"/>
<path d="M111.022 110L116.951 108.043L116.194 105.757L112.555 106.957C112.255 107.056 111.976 107.214 111.736 107.42C111.496 107.627 111.3 107.879 111.157 108.161C111.015 108.444 110.93 108.752 110.906 109.067C110.883 109.382 110.922 109.699 111.022 110Z" fill="#2F2E41"/>
<path d="M106.529 55.6991C108.727 55.6991 110.509 53.9203 110.509 51.726C110.509 49.5317 108.727 47.7529 106.529 47.7529C104.33 47.7529 102.548 49.5317 102.548 51.726C102.548 53.9203 104.33 55.6991 106.529 55.6991Z" fill="#FFB8B8"/>
<path d="M103.043 106.029L104.888 93.8731C104.908 93.7433 104.972 93.6245 105.07 93.5368C105.168 93.4491 105.293 93.398 105.425 93.3923C105.556 93.3865 105.685 93.4265 105.79 93.5053C105.895 93.5842 105.97 93.697 106.001 93.8245L108.811 105.409C108.855 105.586 108.964 105.741 109.117 105.842C109.269 105.943 109.454 105.984 109.635 105.956L117.386 104.713C117.489 104.697 117.587 104.658 117.674 104.601C117.76 104.543 117.834 104.468 117.889 104.38C117.944 104.292 117.98 104.193 117.994 104.09C118.007 103.987 117.999 103.882 117.968 103.783L107.862 70.5241C107.833 70.4296 107.83 70.3292 107.852 70.233L108.188 68.7771C108.225 68.6193 108.208 68.4536 108.14 68.3066C108.071 68.1596 107.956 68.0397 107.811 67.966C106.435 67.2651 102.949 65.8079 100.318 67.404C100.233 67.456 100.159 67.5248 100.101 67.6062C100.043 67.6876 100.003 67.7799 99.9815 67.8775L92.0861 104.917C92.0646 105.017 92.0648 105.122 92.0866 105.222C92.1084 105.323 92.1514 105.418 92.2127 105.501C92.2739 105.583 92.3521 105.652 92.4421 105.703C92.532 105.753 92.6316 105.784 92.7344 105.793L102.257 106.645C102.279 106.646 102.3 106.647 102.322 106.647C102.496 106.647 102.665 106.585 102.797 106.471C102.929 106.358 103.016 106.201 103.043 106.029L103.043 106.029Z" fill="#2F2E41"/>
<path d="M109.168 48.9189C108.868 48.7387 108.602 48.5077 108.381 48.2362C108.272 48.099 108.201 47.9362 108.173 47.7634C108.146 47.5906 108.163 47.4136 108.224 47.2495C108.425 46.8065 109.023 46.6671 109.486 46.8174C109.949 46.9677 110.307 47.3305 110.645 47.6801C110.943 47.9874 111.25 48.3097 111.391 48.7139C111.532 49.1182 111.459 49.6308 111.108 49.8762C110.763 50.1169 110.266 50.0184 109.934 49.7599C109.602 49.5014 109.397 49.1177 109.201 48.7456L109.168 48.9189Z" fill="#2F2E41"/>
<path d="M110.516 47.7868C110.538 46.6674 111.817 45.8646 112.921 46.0631C114.025 46.2616 114.874 47.2011 115.299 48.2374C116.196 50.4268 115.522 52.9251 114.658 55.1285C113.793 57.3319 112.722 59.5672 112.849 61.9296C112.934 63.2065 113.363 64.4366 114.091 65.4901C114.819 66.5436 115.818 67.3814 116.984 67.9149C115.738 68.4786 114.248 67.8963 113.201 67.0174C110.876 65.0657 109.978 61.5909 111.068 58.7603C111.606 57.3641 112.553 56.1696 113.293 54.8689C114.033 53.5681 114.576 52.0351 114.194 50.5888C113.812 49.1424 112.186 47.9716 110.797 48.5311L110.516 47.7868Z" fill="#2F2E41"/>
<path d="M106.29 53.4891C106.637 52.9038 106.987 52.1354 106.353 51.6237C106.215 51.5176 106.057 51.44 105.889 51.3955C105.72 51.3511 105.545 51.3407 105.372 51.3649C104.657 51.451 103.878 51.4864 103.186 51.2271C102.927 51.1379 102.688 50.9976 102.483 50.8145C102.279 50.6313 102.114 50.409 101.997 50.1609C101.641 49.3159 102.088 48.289 102.835 47.7548C103.292 47.4399 103.832 47.2667 104.387 47.2569C104.942 47.2471 105.488 47.4011 105.956 47.6997C106.923 47.2731 108.097 47.4628 108.976 48.05C109.855 48.6373 110.457 49.5776 110.783 50.5817C111.084 51.4459 111.136 52.3772 110.933 53.2694C110.769 53.8901 110.458 54.4623 110.026 54.9376C109.594 55.4128 109.054 55.7772 108.451 55.9998C108.216 56.0923 107.961 56.1215 107.711 56.0846C107.461 56.0477 107.225 55.946 107.027 55.7895C107.027 55.7895 106.479 55.3115 106.307 54.7358C106.175 54.293 106.105 53.8017 106.29 53.4891Z" fill="#2F2E41"/>
<path d="M94.4812 57.0343C94.5011 57.1216 94.514 57.2103 94.5199 57.2996L101.482 61.3084L103.174 60.3361L104.978 62.6933L102.15 64.7053C101.921 64.8679 101.646 64.9521 101.366 64.9453C101.085 64.9385 100.814 64.841 100.594 64.6675L93.4144 59.0144C93.0903 59.1343 92.7374 59.1528 92.4025 59.0675C92.0676 58.9821 91.7667 58.7971 91.5398 58.5369C91.3129 58.2767 91.1707 57.9537 91.1322 57.6109C91.0937 57.2681 91.1607 56.9217 91.3242 56.6179C91.4878 56.314 91.7401 56.067 92.0478 55.9098C92.3554 55.7526 92.7037 55.6926 93.0463 55.7378C93.389 55.783 93.7097 55.9313 93.9658 56.1629C94.222 56.3945 94.4014 56.6984 94.4802 57.0343H94.4812Z" fill="#FFB8B8"/>
<path d="M101.715 61.4983L103.965 64.4091C104.029 64.4918 104.11 64.5598 104.203 64.6084C104.296 64.6571 104.398 64.6852 104.502 64.6909C104.607 64.6967 104.711 64.6798 104.809 64.6416C104.906 64.6034 104.994 64.5447 105.067 64.4695L107.614 61.8293C108.045 61.5091 108.331 61.0312 108.409 60.5006C108.487 59.97 108.351 59.4302 108.03 58.9999C107.709 58.5697 107.23 58.2843 106.699 58.2065C106.167 58.1287 105.626 58.2649 105.195 58.585C105.173 58.6014 105.152 58.6182 105.13 58.6354L101.936 60.4184C101.844 60.4695 101.765 60.5396 101.703 60.6241C101.641 60.7086 101.598 60.8053 101.577 60.9078C101.556 61.0103 101.558 61.1161 101.581 61.218C101.605 61.3199 101.65 61.4155 101.714 61.4983L101.715 61.4983Z" fill="#0000E6"/>
<path d="M20.0482 68.4356C19.9687 68.4719 19.8922 68.5144 19.8195 68.5629L12.5504 65.4662L12.2911 63.555L9.38647 63.5372L9.5581 67.921L19.1526 70.4539C19.1728 70.5205 19.1971 70.5857 19.2252 70.6493C19.364 70.9448 19.5871 71.1927 19.8665 71.362C20.146 71.5314 20.4693 71.6145 20.7959 71.601C21.1225 71.5875 21.4379 71.4779 21.7023 71.2861C21.9668 71.0943 22.1686 70.8288 22.2823 70.5229C22.3961 70.217 22.4168 69.8844 22.3418 69.5668C22.2668 69.2492 22.0994 68.9609 21.8607 68.7379C21.6221 68.5149 21.3227 68.3673 21.0003 68.3136C20.6778 68.2599 20.3467 68.3025 20.0484 68.4361L20.0482 68.4356Z" fill="#A0616A"/>
<path d="M8.33013 108.158H10.3171L11.2623 100.509H8.3298L8.33013 108.158Z" fill="#A0616A"/>
<path d="M11.7363 107.592H7.90436V109.999H14.1491C14.1491 109.36 13.8949 108.748 13.4424 108.296C12.9899 107.845 12.3762 107.591 11.7363 107.591H11.7363L11.7363 107.592Z" fill="#2F2E41"/>
<path d="M0.602631 107.598L2.57988 107.792L4.27205 100.272L1.35366 99.9858L0.602631 107.598Z" fill="#A0616A"/>
<path d="M4.04926 107.368L0.236447 106.993L0 109.389L6.21332 110C6.24437 109.685 6.21302 109.367 6.12107 109.065C6.02911 108.762 5.87834 108.481 5.67738 108.236C5.47641 107.992 5.22918 107.789 4.9498 107.64C4.67042 107.491 4.36436 107.399 4.0491 107.368L4.04926 107.368Z" fill="#2F2E41"/>
<path d="M7.77698 55.4416C9.9754 55.4416 11.7576 53.6627 11.7576 51.4685C11.7576 49.2742 9.9754 47.4954 7.77698 47.4954C5.57856 47.4954 3.79639 49.2742 3.79639 51.4685C3.79639 53.6627 5.57856 55.4416 7.77698 55.4416Z" fill="#A0616A"/>
<path d="M10.7612 106.611C10.932 106.612 11.0974 106.552 11.2284 106.442C11.3593 106.333 11.4472 106.181 11.4767 106.013C12.5044 100.316 15.8668 81.6835 15.9472 81.167C15.949 81.1551 15.9499 81.1431 15.9498 81.131V79.7418C15.95 79.6912 15.9341 79.6419 15.9046 79.6008L15.4605 78.9799C15.4394 78.95 15.4117 78.9254 15.3796 78.9079C15.3474 78.8903 15.3117 78.8804 15.2751 78.8788C12.7433 78.7604 4.45145 78.4131 4.05082 78.9126C3.64856 79.4141 3.79151 80.9358 3.82392 81.2355L3.8223 81.2668L0.0971299 105.046C0.0679494 105.236 0.114766 105.429 0.227449 105.585C0.340131 105.74 0.509614 105.845 0.699218 105.877L3.02589 106.259C3.19917 106.287 3.37669 106.252 3.52614 106.16C3.6756 106.068 3.78708 105.926 3.84029 105.759C4.55988 103.464 6.97293 95.7429 7.80921 92.7553C7.81456 92.7365 7.82656 92.7202 7.84298 92.7096C7.8594 92.6989 7.87914 92.6945 7.89854 92.6973C7.91794 92.7 7.93568 92.7097 7.94849 92.7245C7.9613 92.7393 7.9683 92.7582 7.96821 92.7778C7.92639 95.6258 7.82542 102.892 7.78993 105.401L7.7862 105.672C7.78466 105.855 7.85195 106.032 7.97477 106.167C8.0976 106.303 8.26702 106.388 8.44955 106.405L10.6931 106.608C10.7157 106.61 10.7384 106.611 10.7612 106.611Z" fill="#2F2E41"/>
<path d="M10.3033 57.0039C10.9979 57.416 11.4137 58.1734 11.6522 58.945C12.0938 60.372 12.3596 61.8473 12.4438 63.3384L12.6959 67.8031L15.8166 79.6394C13.1118 81.9237 11.5517 81.4044 7.91068 79.536C4.26962 77.6677 3.85375 80.159 3.85375 80.159L3.12573 70.0879L2.08557 59.0827C2.3191 58.8021 2.58341 58.5485 2.87355 58.3266C3.83499 57.5802 4.95361 57.0614 6.14511 56.8092C7.33662 56.557 8.56993 56.5781 9.75211 56.8707L10.3033 57.0039Z" fill="#E6E6E6"/>
<path d="M11.3169 70.826C11.233 70.8573 11.1517 70.8952 11.0738 70.9392L3.88599 67.348L3.76671 65.4027L0.801802 65.1987L0.642975 69.6331L10.2482 72.8037C10.3266 73.1397 10.5056 73.4439 10.7614 73.6758C11.0172 73.9077 11.3377 74.0564 11.6802 74.1021C12.0228 74.1478 12.3711 74.0883 12.679 73.9315C12.9868 73.7747 13.2395 73.5281 13.4035 73.2244C13.5675 72.9208 13.6349 72.5745 13.5969 72.2317C13.5589 71.8888 13.4172 71.5656 13.1906 71.3052C12.9641 71.0447 12.6634 70.8592 12.3287 70.7734C11.9939 70.6877 11.641 70.7057 11.3167 70.825L11.3169 70.826Z" fill="#A0616A"/>
<path d="M2.13744 59.1322C0.369094 59.7551 0.0574341 66.5045 0.0574341 66.5045C2.13792 65.3624 4.63444 67.2313 4.63444 67.2313C4.63444 67.2313 5.15452 65.4661 5.77865 63.182C5.96712 62.5395 5.98966 61.8598 5.84418 61.2063C5.6987 60.5528 5.38992 59.9466 4.94659 59.4442C4.94659 59.4442 3.90595 58.5089 2.13744 59.1322Z" fill="#E6E6E6"/>
<path d="M4.20851 52.5193C4.70445 52.1233 5.38108 52.8428 5.38108 52.8428L5.77783 49.279C5.77783 49.279 8.2575 49.5755 9.84481 49.18C11.4321 48.7845 11.6799 50.6156 11.6799 50.6156C11.7617 49.876 11.7783 49.1305 11.7295 48.388C11.6303 47.497 10.3409 46.6058 8.05945 46.0118C5.77799 45.4178 4.58776 47.992 4.58776 47.992C2.99981 48.7838 3.71194 52.9153 4.20851 52.5193Z" fill="#2F2E41"/>
</g>
<defs>
<clipPath id="clip0">
<rect width="118" height="110" fill="white"/>
</clipPath>
</defs>
</svg>
