<svg width="30" height="30" viewBox="0 0 30 30" fill="none" xmlns="http://www.w3.org/2000/svg">
<path d="M20.4688 2.5H9.52625C9.24625 2.5 7.7775 2.58125 6.3975 4.18875C5.03875 5.77 5 7.3275 5 7.5V21.25C5 21.913 5.26339 22.5489 5.73223 23.0178C6.20107 23.4866 6.83696 23.75 7.5 23.75H8.75L6.25 27.5H9.19125L10.025 26.25H20.025L20.8713 27.5H23.75L21.25 23.75H22.5C23.163 23.75 23.7989 23.4866 24.2678 23.0178C24.7366 22.5489 25 21.913 25 21.25V7.5C25.0012 7.265 24.96 5.7075 23.5888 4.16875C22.1438 2.54625 20.6362 2.5 20.4688 2.5ZM12.5 5H17.5V7.5H12.5V5ZM9.375 21.25C8.87755 21.2498 8.40055 21.0521 8.04892 20.7002C7.69729 20.3483 7.49983 19.8712 7.5 19.3737C7.50017 18.8763 7.69793 18.3993 8.0498 18.0477C8.40166 17.696 8.8788 17.4986 9.37625 17.4987C9.8737 17.4989 10.3507 17.6967 10.7023 18.0485C11.054 18.4004 11.2514 18.8776 11.2513 19.375C11.2511 19.8724 11.0533 20.3495 10.7015 20.7011C10.3496 21.0527 9.87245 21.2502 9.375 21.25ZM20.625 21.25C20.1276 21.2498 19.6505 21.0521 19.2989 20.7002C18.9473 20.3483 18.7498 19.8712 18.75 19.3737C18.7502 18.8763 18.9479 18.3993 19.2998 18.0477C19.6517 17.696 20.1288 17.4986 20.6262 17.4987C21.1237 17.4989 21.6007 17.6967 21.9523 18.0485C22.304 18.4004 22.5014 18.8776 22.5012 19.375C22.5011 19.8724 22.3033 20.3495 21.9515 20.7011C21.5996 21.0527 21.1224 21.2502 20.625 21.25ZM22.5 15H7.5V10H22.5V15Z" fill="black"/>
</svg>
