<svg width="36" height="36" viewBox="0 0 36 36" fill="none" xmlns="http://www.w3.org/2000/svg">
<path d="M6.25 11.5L12 13.16L18.32 8.57001L9.25 8.83001C9.16119 8.83486 9.07512 8.8624 9 8.91001L6.13 10.56C6.04072 10.6095 5.96834 10.6846 5.92221 10.7756C5.87609 10.8667 5.85834 10.9695 5.87126 11.0707C5.88419 11.1719 5.92719 11.267 5.99471 11.3435C6.06223 11.42 6.15116 11.4746 6.25 11.5Z" fill="black"/>
<path d="M34.52 6.36L28.22 5C27.6902 4.88498 27.1418 4.88528 26.6121 5.00088C26.0824 5.11649 25.5837 5.34469 25.15 5.67L6.12001 19.5L1.55001 19.3C1.28825 19.2911 1.0303 19.3647 0.812591 19.5103C0.594884 19.6559 0.428416 19.8662 0.336694 20.1115C0.244971 20.3569 0.232628 20.6248 0.301407 20.8775C0.370186 21.1303 0.516613 21.355 0.720011 21.52L5.17001 25.05C5.24327 25.1091 5.33047 25.1484 5.42327 25.1642C5.51606 25.1799 5.61135 25.1716 5.70001 25.14C6.97001 24.65 11.7 22.14 17.29 19.07L18.41 30.58C18.4195 30.6797 18.4561 30.7749 18.5157 30.8553C18.5753 30.9358 18.6558 30.9984 18.7484 31.0365C18.841 31.0746 18.9423 31.0866 19.0412 31.0714C19.1402 31.0561 19.2331 31.0142 19.31 30.95L21.81 28.87C21.9469 28.7552 22.0389 28.5959 22.07 28.42L24.44 15.13C28.44 12.91 32.26 10.76 34.95 9.24C35.2292 9.0881 35.4549 8.85406 35.5966 8.56958C35.7383 8.28511 35.7891 7.96395 35.7422 7.64963C35.6952 7.3353 35.5528 7.043 35.3342 6.81232C35.1156 6.58164 34.8314 6.42374 34.52 6.36Z" fill="black"/>
</svg>
